<svg version="1.1" id="Layer_1" xmlns="http://www.w3.org/2000/svg" xmlns:xlink="http://www.w3.org/1999/xlink" x="0px" y="0px"
	 width="100%" viewBox="0 0 200 200" enable-background="new 0 0 200 200" xml:space="preserve">
<path fill="#FEFFFF" opacity="1.000000" stroke="none" 
	d="
M201.000000,81.000000 
	C201.000000,121.308426 201.000000,161.116852 201.000000,200.962646 
	C134.399948,200.962646 67.799858,200.962646 1.099884,200.962646 
	C1.099884,134.441742 1.099884,67.883278 1.099884,1.162409 
	C67.666344,1.162409 134.333145,1.162409 201.000000,1.162409 
	C201.000000,27.533213 201.000000,54.016605 201.000000,81.000000 
M48.388493,97.415451 
	C48.284187,97.982811 48.179882,98.550171 48.016811,99.998520 
	C48.017063,102.651817 48.017311,105.305107 47.325729,108.332680 
	C47.279728,109.890709 47.233727,111.448738 47.029499,113.931854 
	C47.430225,122.318970 47.830952,130.706085 48.096851,139.930435 
	C48.428970,142.955750 48.761093,145.981079 49.007214,149.511383 
	C49.075424,149.667938 49.143631,149.824478 49.165627,150.662872 
	C49.286915,151.099609 49.408203,151.536362 49.187504,152.741928 
	C50.959332,161.553604 52.894566,170.288467 60.450375,176.574829 
	C60.450375,176.574829 60.585594,176.698746 60.929123,177.286591 
	C64.644371,177.657837 68.600746,178.985779 72.006081,178.127457 
	C75.318237,177.292633 78.065781,174.217728 81.755272,172.074997 
	C87.592194,173.079422 92.765060,166.949997 91.994583,159.134125 
	C91.984901,156.753998 91.975220,154.373871 92.522453,151.514130 
	C94.360924,145.334045 96.054062,139.105606 98.088646,132.990768 
	C99.459679,128.870193 101.312813,124.910042 103.657509,121.385086 
	C104.398262,129.408676 105.059097,137.441208 105.955986,145.447296 
	C106.111115,146.832062 107.266655,148.104736 107.305534,150.094604 
	C108.222054,154.058121 109.138573,158.021622 109.991058,162.731567 
	C110.927505,164.952072 111.863953,167.172562 112.828552,169.732529 
	C112.828552,169.732529 113.050903,169.990570 113.084747,170.680862 
	C114.320580,171.922913 115.556412,173.164963 117.088867,174.727432 
	C117.088867,174.727432 117.503777,174.863510 117.721130,175.460129 
	C123.924660,181.506424 137.462875,177.095627 140.929184,167.289871 
	C141.183212,166.207489 141.437241,165.125092 141.993454,163.412308 
	C142.038071,162.956329 142.082703,162.500336 142.606522,161.624817 
	C142.983749,160.428925 143.360977,159.233017 143.992081,157.306061 
	C144.619995,154.531662 145.247910,151.757278 146.318863,148.383652 
	C146.478958,146.911987 146.639053,145.440323 147.002121,143.333084 
	C146.958252,142.895096 146.914383,142.457108 147.085876,141.339676 
	C148.041992,138.891571 148.998093,136.443481 150.646240,133.748001 
	C152.651794,127.454567 154.657333,121.161140 157.022430,114.234779 
	C157.238113,113.541023 157.453796,112.847267 158.260178,111.969734 
	C159.294449,109.039146 164.828003,106.998146 159.752441,102.326050 
	C157.819016,100.376671 156.828674,95.765221 152.152054,100.147026 
	C149.506058,102.469688 146.860077,104.792351 143.665268,107.543434 
	C141.086639,111.035706 138.508026,114.527977 135.378433,117.492271 
	C134.883896,113.265793 134.389359,109.039322 133.922028,104.398697 
	C133.922028,104.398697 134.074326,104.012283 134.807846,103.849625 
	C135.515869,99.561493 136.223877,95.273369 136.979660,90.493629 
	C136.979660,90.493629 137.013275,90.000839 137.758469,90.080864 
	C138.835968,89.506607 140.723801,89.064278 140.842682,88.333969 
	C141.237656,85.907829 140.834976,83.364754 141.039902,80.891518 
	C141.299194,77.762512 139.947388,76.626892 136.982666,76.174683 
	C136.708389,74.123466 136.434113,72.072258 136.045380,69.442947 
	C135.963272,69.059021 135.881180,68.675087 135.934906,67.515114 
	C135.716934,64.895737 135.053345,63.004974 131.220078,65.113403 
	C130.487549,65.019814 129.755035,64.926231 128.655960,64.246620 
	C123.080040,59.445873 116.720093,59.720707 112.512901,65.142540 
	C112.357094,65.215843 112.201294,65.289139 111.433731,65.154884 
	C110.788017,65.152435 110.142303,65.149994 108.896477,65.198677 
	C108.601814,65.451637 108.307144,65.704597 107.812325,66.199402 
	C107.812325,66.199402 107.510735,66.286598 106.635231,66.119415 
	C104.536560,65.745903 102.202377,65.825233 100.397629,64.886581 
	C98.033638,63.657063 96.087654,61.623833 94.300064,59.307724 
	C95.270729,55.933723 96.241402,52.559723 97.574913,48.821190 
	C97.696091,48.507187 97.817276,48.193188 98.084503,47.472828 
	C98.201614,47.203945 98.373329,46.976242 99.312012,46.866364 
	C100.851181,44.777710 102.731552,42.852764 103.834160,40.554657 
	C104.951065,38.226734 105.298950,35.529846 106.815651,32.994106 
	C110.136497,33.322948 109.984535,31.102978 110.019608,28.819811 
	C110.067650,25.693441 107.960815,25.996449 105.409798,25.600451 
	C104.922913,24.073727 104.436028,22.547005 104.658203,20.934019 
	C105.307411,20.162519 105.956627,19.391020 106.605843,18.619522 
	C105.854782,18.098469 105.166344,17.325163 104.337044,17.119278 
	C103.264984,16.853125 102.080414,17.040150 100.207260,16.944342 
	C98.613319,15.307260 97.299789,13.061788 95.362793,12.168987 
	C92.070793,10.651643 88.386169,9.986137 85.580727,9.170339 
	C84.519600,11.867256 83.721519,13.895626 82.248337,16.057318 
	C74.558563,22.736227 69.846954,31.263208 66.179756,41.104786 
	C65.464195,43.424820 64.748627,45.744850 63.827015,48.577229 
	C63.535004,49.044086 63.242989,49.510944 62.307793,50.290951 
	C61.241493,53.261093 60.175194,56.231236 59.074524,59.617256 
	C59.074524,59.617256 58.882946,59.987980 58.451660,60.218037 
	C58.201233,60.435635 58.001781,60.692780 57.174404,60.854816 
	C56.258511,59.890224 55.342617,58.925629 53.098648,56.562347 
	C51.551392,64.349548 50.147552,70.751900 49.119453,77.214020 
	C48.939083,78.347710 50.334915,79.732178 50.982662,81.806473 
	C50.325439,86.204453 49.668213,90.602440 49.027275,95.487701 
	C49.027275,95.487701 49.152378,95.958626 48.973003,96.483948 
	C48.922703,96.662018 48.872402,96.840088 48.388493,97.415451 
M98.687851,164.424133 
	C98.687851,161.110611 98.687851,157.797073 98.687851,154.062973 
	C94.683273,156.791489 93.877060,163.961395 96.784279,166.127319 
	C96.939148,166.242722 97.771423,165.448853 98.687851,164.424133 
z"/>
<path fill="#2D51A7" opacity="1.000000" stroke="none" 
	d="
M48.231678,139.093201 
	C47.830952,130.706085 47.430225,122.318970 47.474476,113.565712 
	C48.283508,115.467400 48.647564,117.735222 49.007908,120.410095 
	C49.368256,127.467621 50.869858,128.979706 57.143864,128.998810 
	C59.761841,129.006790 62.379864,129.001617 65.003937,129.376160 
	C66.131790,132.123306 67.253578,134.496735 68.659035,137.470352 
	C71.788193,133.484955 74.442329,130.487579 72.978836,125.650528 
	C72.990906,124.885857 72.994850,124.448669 73.355286,123.944885 
	C74.438263,122.406441 75.164749,120.934593 75.887383,119.470566 
	C76.969536,119.998314 77.957855,120.480301 78.992332,121.296547 
	C79.112663,122.074219 79.186829,122.517639 79.214706,123.301682 
	C79.247437,124.086990 79.326447,124.531685 79.341965,125.310486 
	C79.324547,126.093437 79.370628,126.542282 79.346588,127.388855 
	C81.235229,136.834534 83.194000,145.882477 85.242401,155.265045 
	C85.992729,157.304382 86.653435,159.009109 86.952850,160.815857 
	C84.932953,162.633575 83.259018,164.334763 81.620789,166.069672 
	C80.393860,167.369034 79.212914,168.711792 77.686844,169.901047 
	C74.812057,170.383224 72.232559,170.900543 69.720490,171.645279 
	C67.453827,172.317245 65.260933,173.238083 62.870773,173.860199 
	C62.381111,172.415558 67.565002,171.613113 63.003677,170.004578 
	C63.000000,170.000000 62.990818,169.992889 62.998955,169.602875 
	C66.933075,159.898178 65.697502,150.050659 67.048920,140.911667 
	C62.951233,140.496994 59.960678,140.194366 56.970123,139.891724 
	C57.082443,140.110062 57.194759,140.328384 57.307079,140.546722 
	C54.669037,141.430252 52.030994,142.313797 49.477779,143.168915 
	C48.977055,141.531158 48.604366,140.312180 48.231678,139.093201 
z"/>
<path fill="#3459B3" opacity="1.000000" stroke="none" 
	d="
M63.007355,170.009155 
	C67.565002,171.613113 62.381111,172.415558 62.789757,174.225708 
	C62.110844,175.419678 61.348217,176.059204 60.585594,176.698746 
	C60.585594,176.698746 60.450375,176.574829 60.597984,176.137665 
	C60.615231,174.741043 60.842072,173.294037 60.299820,172.896759 
	C54.166500,168.403198 56.631458,160.441925 52.931023,155.050552 
	C52.089321,153.824219 50.678410,152.988571 49.529495,151.973099 
	C49.408203,151.536362 49.286915,151.099609 49.326653,150.218094 
	C49.356186,149.517670 49.224697,149.262039 49.093212,149.006393 
	C48.761093,145.981079 48.428970,142.955750 48.164265,139.511810 
	C48.604366,140.312180 48.977055,141.531158 49.477779,143.168915 
	C52.030994,142.313797 54.669037,141.430252 57.307079,140.546722 
	C57.194759,140.328384 57.082443,140.110062 56.970123,139.891724 
	C59.960678,140.194366 62.951233,140.496994 67.048920,140.911667 
	C65.697502,150.050659 66.933075,159.898178 62.859795,169.659271 
	C62.810783,170.073502 62.909069,170.041321 63.007355,170.009155 
z"/>
<path fill="#666666" opacity="1.000000" stroke="none" 
	d="
M102.950272,120.878113 
	C101.312813,124.910042 99.459679,128.870193 98.088646,132.990768 
	C96.054062,139.105606 94.360924,145.334045 91.934181,151.579010 
	C90.900719,150.101288 90.455528,148.558716 89.915100,146.733398 
	C89.915123,145.307800 90.010376,144.164917 90.454010,142.951141 
	C90.858315,140.918259 90.914230,138.956284 90.989868,136.755386 
	C91.009598,136.516464 91.060371,136.039703 91.363556,135.997070 
	C92.893593,134.280823 94.120445,132.607193 95.581200,130.614502 
	C89.976845,128.574554 95.499039,124.750458 94.733742,121.943520 
	C92.195717,122.352417 89.923767,122.718445 86.077751,123.338066 
	C87.434456,120.058723 88.220482,118.158783 89.025749,116.212341 
	C85.883553,118.187767 84.396820,115.143631 82.655418,113.338066 
	C81.647911,112.293442 81.486610,110.432686 80.950027,108.573212 
	C80.968521,107.473465 80.981476,106.739731 81.231018,105.982849 
	C81.467613,105.959702 81.936836,105.883972 81.978699,106.188278 
	C82.451004,106.818581 82.881447,107.144569 83.311890,107.470558 
	C83.189018,106.590363 83.066139,105.710159 83.056007,104.538597 
	C83.463760,103.497406 83.758774,102.747581 84.448029,101.999603 
	C86.609116,101.454277 88.353760,100.812042 90.150429,100.392609 
	C91.393257,100.102470 92.707878,100.119858 93.992096,100.388809 
	C94.931038,104.245872 95.945534,107.697037 96.713127,111.202271 
	C96.815338,111.669052 95.665100,112.410095 94.697769,113.014809 
	C93.268044,113.452858 92.235397,113.900223 91.202759,114.347588 
	C92.128052,114.894096 93.053352,115.440605 94.034729,116.330185 
	C95.627884,116.463989 97.164940,116.254730 98.449982,116.079781 
	C99.776901,117.247971 101.272888,118.565002 102.817154,120.130524 
	C102.893715,120.545372 102.921989,120.711739 102.950272,120.878113 
z"/>
<path fill="#F7FBFB" opacity="1.000000" stroke="none" 
	d="
M93.961868,59.936302 
	C96.087654,61.623833 98.033638,63.657063 100.397629,64.886581 
	C102.202377,65.825233 104.536560,65.745903 106.946083,66.504822 
	C106.731995,67.836311 106.207054,68.782394 105.422981,69.951355 
	C104.607559,71.368530 104.051270,72.562828 103.166176,73.799896 
	C102.197456,74.606155 101.557549,75.369659 100.714104,76.192329 
	C100.178734,76.300644 99.991135,76.491669 99.644318,76.983597 
	C98.055084,78.714935 96.769295,80.287231 95.229279,82.051392 
	C91.206345,87.811729 87.437645,93.380203 83.379150,98.887360 
	C82.858070,97.202049 82.626801,95.578033 82.382690,93.637344 
	C82.466026,92.912125 82.562195,92.503593 82.951660,91.937767 
	C84.244339,88.550011 85.414108,85.360641 86.205292,82.079971 
	C87.575882,76.396805 88.711952,70.657089 89.969727,64.971268 
	C89.993073,65.001457 89.926208,64.964561 90.213531,64.798195 
	C90.614372,64.002724 90.727898,63.373615 90.851852,62.547867 
	C90.862282,62.351223 91.051910,62.006042 91.273392,61.870361 
	C91.558449,61.410633 91.622017,61.086578 91.664833,60.723328 
	C91.644081,60.684124 91.625069,60.597469 91.934044,60.626816 
	C92.815964,60.416210 93.388916,60.176258 93.961868,59.936302 
z"/>
<path fill="#575A59" opacity="1.000000" stroke="none" 
	d="
M145.875824,148.982880 
	C145.247910,151.757278 144.619995,154.531662 143.555130,157.604889 
	C142.501297,156.020645 141.208420,154.063187 141.405777,152.269730 
	C141.840256,148.321793 138.817703,144.895874 140.721283,140.562943 
	C142.476288,136.568207 138.749939,129.755219 134.887222,127.729492 
	C134.158890,127.293289 133.597122,127.109138 133.029907,126.531845 
	C133.029343,125.089058 133.034256,124.039421 133.194946,122.707718 
	C134.210281,120.957184 135.069839,119.488716 135.929398,118.020248 
	C138.508026,114.527977 141.086639,111.035706 144.163605,107.543243 
	C144.766464,109.033447 144.870972,110.523849 145.247162,112.236954 
	C145.012772,115.306313 144.506683,118.152962 143.654144,121.035034 
	C142.323853,121.978195 141.340042,122.885925 140.356232,123.793655 
	C141.236801,124.195824 142.117386,124.597984 142.998413,125.375107 
	C143.001160,126.499466 143.003433,127.248871 142.743042,128.118973 
	C142.275726,128.735077 142.071075,129.230484 141.866425,129.725891 
	C142.907440,129.489456 143.948486,129.253021 144.994598,129.008636 
	C144.999680,129.000687 145.000214,128.999878 144.938141,129.356216 
	C141.646118,134.568680 142.569870,140.268661 146.870514,142.019119 
	C146.914383,142.457108 146.958252,142.895096 146.569946,143.710175 
	C144.722794,145.648087 142.216782,147.150543 145.875824,148.982880 
z"/>
<path fill="#3055AF" opacity="1.000000" stroke="none" 
	d="
M110.055084,161.985138 
	C109.138573,158.021622 108.222054,154.058121 107.653534,149.483246 
	C107.671715,146.911240 107.341904,144.950577 107.357552,143.049377 
	C109.403603,145.383606 111.104195,147.658371 112.987022,150.176895 
	C112.829094,148.192001 112.682167,146.345261 112.575424,145.003662 
	C116.502045,145.003662 120.247971,145.003662 124.240013,145.198792 
	C122.014885,150.315018 118.761116,155.010468 119.653900,160.998291 
	C118.877571,160.999939 118.433891,161.000885 117.571457,161.003616 
	C115.099968,161.345291 113.047234,161.685181 110.759720,162.013489 
	C110.524933,162.001907 110.055084,161.985138 110.055084,161.985138 
z"/>
<path fill="#2773AF" opacity="1.000000" stroke="none" 
	d="
M48.017559,107.958405 
	C48.017311,105.305107 48.017063,102.651817 48.298065,99.453842 
	C48.778591,98.611618 48.977863,98.314056 49.385201,98.008728 
	C49.593258,98.000954 50.009541,97.990555 50.251236,98.271164 
	C55.174633,99.687927 57.397053,97.639977 57.283920,93.950325 
	C59.234814,94.748650 61.226135,95.436958 63.084637,96.385506 
	C63.842220,96.772156 64.900520,97.805733 64.816765,98.404327 
	C64.268967,102.319473 66.232872,104.388443 69.409348,106.148560 
	C70.361237,106.676010 70.497131,108.676117 71.004616,110.375687 
	C70.999260,111.497955 70.996155,112.246078 70.617737,112.995117 
	C69.491798,112.997963 68.741173,112.999893 67.602791,112.989754 
	C66.486198,112.270706 65.321861,111.675293 65.107010,110.836639 
	C64.344643,107.860794 63.908741,104.867828 59.698380,105.199440 
	C56.650429,105.439484 53.581791,105.427917 50.540081,105.715683 
	C50.290161,105.739334 50.176384,107.202003 49.668716,107.994781 
	C48.897907,107.981827 48.457733,107.970116 48.017559,107.958405 
z"/>
<path fill="#0F98B8" opacity="1.000000" stroke="none" 
	d="
M112.045502,65.362427 
	C112.201294,65.289139 112.357094,65.215843 113.120148,65.119324 
	C114.490448,65.144745 115.253510,65.193382 116.252792,65.455887 
	C117.333221,65.768234 118.177414,65.866722 119.074631,66.319763 
	C119.588165,67.083679 119.981079,67.670013 120.519402,67.875618 
	C127.571075,70.568954 131.424942,78.758011 128.657410,86.033928 
	C127.212418,86.377449 126.112465,86.690712 125.007980,86.586548 
	C124.995941,78.281464 120.729477,73.386757 114.017845,70.021362 
	C113.189865,71.579445 112.518684,72.842468 111.599564,73.854080 
	C109.596428,70.688652 110.139572,67.968163 112.045502,65.362427 
z"/>
<path fill="#3055AF" opacity="1.000000" stroke="none" 
	d="
M141.691269,164.042709 
	C141.437241,165.125092 141.183212,166.207489 140.508881,167.634521 
	C139.407715,168.014023 138.726852,168.048874 138.029144,167.755737 
	C137.392899,167.047012 136.773514,166.666260 136.154129,166.285522 
	C134.927063,168.307938 129.816910,167.562943 131.813049,172.331650 
	C126.887581,173.364075 122.195679,174.113800 117.503777,174.863510 
	C117.503777,174.863510 117.088867,174.727432 116.889061,174.194687 
	C116.401970,172.460052 116.114685,171.258179 116.117065,169.878693 
	C116.941666,168.465546 117.476601,167.230011 118.370438,166.060425 
	C121.321388,171.007721 124.559303,167.614471 127.874214,167.174500 
	C134.263870,166.326385 129.380463,160.665741 131.995819,158.263306 
	C132.569946,159.081665 132.996140,159.689163 134.004028,161.125824 
	C134.004028,158.622681 134.004028,157.301880 134.216125,156.101501 
	C134.953445,156.473465 135.478683,156.725006 136.227661,157.016632 
	C136.451431,157.056686 136.903931,157.100616 136.897827,157.491440 
	C136.910690,158.924225 136.929657,159.966202 136.714386,161.201508 
	C137.339050,162.243927 138.197952,163.093018 139.386032,163.972382 
	C140.373886,164.016006 141.032578,164.029358 141.691269,164.042709 
z"/>
<path fill="#423F3E" opacity="1.000000" stroke="none" 
	d="
M135.053787,127.981537 
	C138.749939,129.755219 142.476288,136.568207 140.721283,140.562943 
	C138.817703,144.895874 141.840256,148.321793 141.405777,152.269730 
	C141.208420,154.063187 142.501297,156.020645 143.428192,157.970428 
	C143.360977,159.233017 142.983749,160.428925 142.039124,161.698929 
	C140.318970,160.180069 139.166229,158.587097 138.014725,156.618896 
	C137.029602,149.413986 136.093002,142.576187 134.981705,135.766891 
	C134.867508,135.067062 133.709229,134.537643 133.020233,133.567169 
	C133.017044,132.480911 133.029053,131.756653 133.284866,130.831970 
	C134.037033,129.748199 134.545410,128.864868 135.053787,127.981537 
z"/>
<path fill="#2A61AA" opacity="1.000000" stroke="none" 
	d="
M47.671646,108.145538 
	C48.457733,107.970116 48.897907,107.981827 49.669022,108.412048 
	C50.445633,113.102112 52.829956,114.645508 57.903740,113.470604 
	C60.573547,112.852386 62.287350,112.934937 63.205769,115.994377 
	C63.650558,117.476059 65.037888,118.674789 65.998962,120.376633 
	C65.998711,121.501701 65.997978,122.251762 65.580711,123.000900 
	C59.779987,122.000999 54.395802,121.002022 49.011620,120.003052 
	C48.647564,117.735222 48.283508,115.467400 47.553589,113.103165 
	C47.233727,111.448738 47.279728,109.890709 47.671646,108.145538 
z"/>
<path fill="#4163B3" opacity="1.000000" stroke="none" 
	d="
M60.757355,176.992676 
	C61.348217,176.059204 62.110844,175.419678 62.954487,174.414658 
	C65.260933,173.238083 67.453827,172.317245 69.720490,171.645279 
	C72.232559,170.900543 74.812057,170.383224 77.884186,170.151886 
	C79.291214,171.066742 80.176231,171.596588 81.061249,172.126434 
	C78.065781,174.217728 75.318237,177.292633 72.006081,178.127457 
	C68.600746,178.985779 64.644371,177.657837 60.757355,176.992676 
z"/>
<path fill="#446BC2" opacity="1.000000" stroke="none" 
	d="
M81.408264,172.100708 
	C80.176231,171.596588 79.291214,171.066742 78.208839,170.286072 
	C79.212914,168.711792 80.393860,167.369034 81.620789,166.069672 
	C83.259018,164.334763 84.932953,162.633575 87.298149,160.860672 
	C89.312172,160.543060 90.619606,160.282669 91.927040,160.022263 
	C92.765060,166.949997 87.592194,173.079422 81.408264,172.100708 
z"/>
<path fill="#5478C1" opacity="1.000000" stroke="none" 
	d="
M117.612457,175.161819 
	C122.195679,174.113800 126.887581,173.364075 132.178680,172.323456 
	C134.533905,170.716278 136.289948,169.399994 138.045990,168.083710 
	C138.726852,168.048874 139.407715,168.014023 140.429108,167.965012 
	C137.462875,177.095627 123.924660,181.506424 117.612457,175.161819 
z"/>
<path fill="#FBFEF6" opacity="1.000000" stroke="none" 
	d="
M51.002811,81.000824 
	C50.334915,79.732178 48.939083,78.347710 49.119453,77.214020 
	C50.147552,70.751900 51.551392,64.349548 53.098648,56.562347 
	C55.342617,58.925629 56.258511,59.890224 57.562862,61.191956 
	C57.987835,61.707993 58.024349,61.886894 58.032486,62.039219 
	C58.004105,62.012646 58.080585,62.026669 57.798180,62.197521 
	C57.299973,63.205063 57.084171,64.041756 56.533115,64.985390 
	C54.214256,69.187859 49.805496,72.704659 53.110706,78.382729 
	C53.018879,79.121223 52.919609,79.537476 52.588455,80.079025 
	C51.905315,80.469826 51.454063,80.735321 51.002811,81.000824 
z"/>
<path fill="#4163B3" opacity="1.000000" stroke="none" 
	d="
M49.358498,152.357513 
	C50.678410,152.988571 52.089321,153.824219 52.931023,155.050552 
	C56.631458,160.441925 54.166500,168.403198 60.299820,172.896759 
	C60.842072,173.294037 60.615231,174.741043 60.535805,176.070251 
	C52.894566,170.288467 50.959332,161.553604 49.358498,152.357513 
z"/>
<path fill="#797979" opacity="1.000000" stroke="none" 
	d="
M152.758179,99.848221 
	C156.828674,95.765221 157.819016,100.376671 159.837372,102.982193 
	C158.170090,105.571571 156.417877,107.504814 154.235825,109.912300 
	C155.228745,110.560394 156.449112,111.356949 157.669464,112.153503 
	C157.453796,112.847267 157.238113,113.541023 156.511078,114.565872 
	C155.333221,114.935577 154.666702,114.974197 154.000748,114.671066 
	C153.911301,113.462914 153.821289,112.596497 153.696198,111.392288 
	C152.248062,112.028473 151.138016,112.516136 150.014221,113.001038 
	C150.000488,112.998268 149.973007,112.986908 149.940262,112.603928 
	C148.999359,109.458755 147.892807,107.075577 152.288666,105.755287 
	C155.433044,104.810867 156.046555,102.110405 152.758179,99.848221 
z"/>
<path fill="#D7F9FB" opacity="1.000000" stroke="none" 
	d="
M66.857857,40.859077 
	C69.846954,31.263208 74.558563,22.736227 82.740082,16.142279 
	C83.231819,16.227240 83.540398,16.530283 83.414581,16.827551 
	C83.143494,17.970545 82.998230,18.816269 82.615692,19.766853 
	C82.222626,20.169352 82.066833,20.466993 81.593910,20.847240 
	C80.786705,21.569845 80.296623,22.209846 79.784294,22.843765 
	C79.762047,22.837683 79.723785,22.811079 79.418472,22.954700 
	C75.672066,28.623522 72.230972,34.148720 68.555473,39.822304 
	C67.944481,40.368084 67.567879,40.765476 67.107224,41.087688 
	C67.023163,41.012508 66.857857,40.859077 66.857857,40.859077 
z"/>
<path fill="#D7F9FB" opacity="1.000000" stroke="none" 
	d="
M105.983673,32.994568 
	C105.298950,35.529846 104.951065,38.226734 103.834160,40.554657 
	C102.731552,42.852764 100.851181,44.777710 99.006187,46.483021 
	C98.956161,45.204811 99.211952,44.309940 99.682358,43.127602 
	C100.285233,41.231956 100.673500,39.623783 101.030548,38.012291 
	C100.999329,38.008972 101.041481,38.055515 101.330124,37.858997 
	C102.160126,36.164787 102.701477,34.667091 103.218658,33.170547 
	C103.194496,33.171696 103.211327,33.126331 103.467369,32.876938 
	C103.475281,31.088499 103.227150,29.549454 102.949883,27.680315 
	C102.617645,26.572823 102.314552,25.795422 101.989868,24.713423 
	C101.652451,23.928858 101.336632,23.448889 101.010834,22.985420 
	C101.000862,23.001919 101.034309,22.982164 101.020630,22.689541 
	C100.892288,22.024084 100.777618,21.651251 100.768051,21.189182 
	C100.873154,21.099945 101.081406,20.919195 101.438492,20.952824 
	C102.513435,20.997728 103.231293,21.009005 103.949142,21.020281 
	C104.436028,22.547005 104.922913,24.073727 105.688477,26.249355 
	C105.972672,28.930361 105.978172,30.962465 105.983673,32.994568 
z"/>
<path fill="#A0A0A0" opacity="1.000000" stroke="none" 
	d="
M154.000183,115.012817 
	C154.666702,114.974197 155.333221,114.935577 156.331299,114.882332 
	C154.657333,121.161140 152.651794,127.454567 150.072906,133.861832 
	C149.499573,133.975662 149.044998,133.954636 149.016251,133.626846 
	C149.318909,131.873718 149.650330,130.448395 150.041504,129.169876 
	C150.199402,129.363754 150.297562,129.410812 150.395706,129.457870 
	C150.272247,129.298386 150.148804,129.138885 150.030792,128.568787 
	C151.357544,123.776382 152.678864,119.394600 154.000183,115.012817 
z"/>
<path fill="#666666" opacity="1.000000" stroke="none" 
	d="
M152.455109,99.997620 
	C156.046555,102.110405 155.433044,104.810867 152.288666,105.755287 
	C147.892807,107.075577 148.999359,109.458755 149.610168,112.555901 
	C147.867020,112.598648 146.421249,112.306450 144.975464,112.014252 
	C144.870972,110.523849 144.766464,109.033447 144.438019,107.329025 
	C146.860077,104.792351 149.506058,102.469688 152.455109,99.997620 
z"/>
<path fill="#464D56" opacity="1.000000" stroke="none" 
	d="
M91.960815,159.578186 
	C90.619606,160.282669 89.312172,160.543060 87.659439,160.758636 
	C86.653435,159.009109 85.992729,157.304382 85.606277,155.196869 
	C86.587540,152.208481 87.294556,149.622879 88.336304,147.032593 
	C89.117462,147.023987 89.563896,147.020050 90.010338,147.016129 
	C90.455528,148.558716 90.900719,150.101288 91.655724,151.818817 
	C91.975220,154.373871 91.984901,156.753998 91.960815,159.578186 
z"/>
<path fill="#D7F9FB" opacity="1.000000" stroke="none" 
	d="
M83.077629,16.075619 
	C83.721519,13.895626 84.519600,11.867256 85.580727,9.170339 
	C88.386169,9.986137 92.070793,10.651643 95.362793,12.168987 
	C97.299789,13.061788 98.613319,15.307260 100.586449,17.377472 
	C101.004227,18.846802 101.042816,19.882998 101.081406,20.919195 
	C101.081406,20.919195 100.873154,21.099945 100.539215,21.006161 
	C99.472710,20.296579 98.740135,19.680782 97.851990,18.761724 
	C96.359322,17.285080 94.938004,16.193592 93.701736,14.922166 
	C90.620110,11.752892 87.784218,11.162510 85.099174,15.374019 
	C84.774300,15.883580 84.069244,16.150763 83.540398,16.530281 
	C83.540398,16.530283 83.231819,16.227240 83.077629,16.075619 
z"/>
<path fill="#5477A7" opacity="1.000000" stroke="none" 
	d="
M107.012093,142.989914 
	C107.341904,144.950577 107.671715,146.911240 107.980820,149.150543 
	C107.266655,148.104736 106.111115,146.832062 105.955986,145.447296 
	C105.059097,137.441208 104.398262,129.408676 103.303894,121.131599 
	C102.921989,120.711739 102.893715,120.545372 102.986221,119.926079 
	C103.399536,119.284225 103.692062,119.095291 104.245209,118.803268 
	C104.994308,118.152809 105.482780,117.605438 105.977196,117.451996 
	C105.988625,118.896263 105.994118,119.946609 105.985260,121.463913 
	C105.981323,126.950462 105.991730,131.970047 105.992317,137.355515 
	C106.311966,138.820190 106.641434,139.918991 106.972092,141.346634 
	C106.986214,142.113632 106.999153,142.551773 107.012093,142.989914 
z"/>
<path fill="#6E6E70" opacity="1.000000" stroke="none" 
	d="
M149.044998,133.954636 
	C149.044998,133.954636 149.499573,133.975662 149.726898,133.985519 
	C148.998093,136.443481 148.041992,138.891571 146.978195,141.679398 
	C142.569870,140.268661 141.646118,134.568680 145.204926,129.356720 
	C145.711624,129.005051 145.889465,129.009201 146.049423,129.420044 
	C145.995193,131.962524 145.568817,134.383057 149.044998,133.954636 
z"/>
<path fill="#F7FBFB" opacity="1.000000" stroke="none" 
	d="
M136.990906,77.005493 
	C139.947388,76.626892 141.299194,77.762512 141.039902,80.891518 
	C140.834976,83.364754 141.237656,85.907829 140.842682,88.333969 
	C140.723801,89.064278 138.835968,89.506607 137.378693,89.577637 
	C136.996246,85.051437 136.993576,81.028465 136.990906,77.005493 
z"/>
<path fill="#3B60BB" opacity="1.000000" stroke="none" 
	d="
M118.011536,165.994492 
	C117.476601,167.230011 116.941666,168.465546 115.773483,169.873138 
	C114.443787,170.026993 113.747345,170.008789 113.050903,169.990570 
	C113.050903,169.990570 112.828552,169.732529 112.864052,169.164169 
	C112.264534,166.405563 111.629517,164.215332 110.994499,162.025085 
	C113.047234,161.685181 115.099968,161.345291 117.577530,161.419678 
	C118.005424,163.220795 118.008484,164.607635 118.011536,165.994492 
z"/>
<path fill="#46C9D2" opacity="1.000000" stroke="none" 
	d="
M135.799072,68.291161 
	C135.881180,68.675087 135.963272,69.059021 135.891754,70.052429 
	C135.493561,72.439964 135.248993,74.218018 134.640503,75.956116 
	C133.530396,74.969452 132.748734,74.048271 132.045013,73.070976 
	C130.338623,70.701210 128.668488,68.305321 126.991135,65.686829 
	C126.998535,65.453697 127.000130,64.987190 127.337555,64.960251 
	C128.124161,64.899750 128.573334,64.866203 129.022507,64.832657 
	C129.755035,64.926231 130.487549,65.019814 131.797058,65.333000 
	C133.515717,66.465454 134.657394,67.378311 135.799072,68.291161 
z"/>
<path fill="#CFF8FB" opacity="1.000000" stroke="none" 
	d="
M128.839233,64.539642 
	C128.573334,64.866203 128.124161,64.899750 126.972870,64.816833 
	C122.852699,64.880905 119.434631,65.061462 116.016563,65.242020 
	C115.253510,65.193382 114.490448,65.144745 113.354164,65.010048 
	C116.720093,59.720707 123.080040,59.445873 128.839233,64.539642 
z"/>
<path fill="#48A9B7" opacity="1.000000" stroke="none" 
	d="
M111.739616,65.258652 
	C110.139572,67.968163 109.596428,70.688652 111.637123,74.265633 
	C111.923218,76.601349 111.923798,78.274101 111.672043,80.072418 
	C110.929893,80.475838 110.440079,80.753693 109.702896,80.793922 
	C110.224937,76.240555 111.030121,71.912346 105.682114,69.728477 
	C106.207054,68.782394 106.731995,67.836311 107.383835,66.588409 
	C107.510735,66.286598 107.812325,66.199402 108.207443,66.046417 
	C108.900574,65.644806 109.198586,65.396179 109.496597,65.147552 
	C110.142303,65.149994 110.788017,65.152435 111.739616,65.258652 
z"/>
<path fill="#FBFEF6" opacity="1.000000" stroke="none" 
	d="
M98.488098,164.751205 
	C97.771423,165.448853 96.939148,166.242722 96.784279,166.127319 
	C93.877060,163.961395 94.683273,156.791489 98.687851,154.062973 
	C98.687851,157.797073 98.687851,161.110611 98.488098,164.751205 
z"/>
<path fill="#999999" opacity="1.000000" stroke="none" 
	d="
M157.964813,112.061615 
	C156.449112,111.356949 155.228745,110.560394 154.235825,109.912300 
	C156.417877,107.504814 158.170090,105.571571 159.986053,103.278328 
	C164.828003,106.998146 159.294449,109.039146 157.964813,112.061615 
z"/>
<path fill="#3DA8B7" opacity="1.000000" stroke="none" 
	d="
M58.882946,59.987980 
	C58.882946,59.987980 59.074524,59.617256 59.358086,59.170578 
	C60.744755,55.808533 61.847862,52.893166 62.950974,49.977802 
	C63.242989,49.510944 63.535004,49.044086 64.128746,48.279377 
	C64.430473,47.981525 64.812202,47.842007 64.906952,47.918816 
	C65.001709,47.995628 65.191307,48.148315 65.082550,48.516731 
	C63.950783,53.236290 62.927784,57.587429 61.591564,61.993668 
	C60.524021,63.033878 59.769695,64.018990 58.754364,65.007065 
	C58.319366,65.006760 58.145382,65.003510 57.940094,64.628326 
	C57.966053,63.513157 58.023319,62.769913 58.080585,62.026669 
	C58.080585,62.026669 58.004105,62.012646 58.278027,61.864452 
	C58.662281,61.140167 58.772614,60.564072 58.882946,59.987980 
z"/>
<path fill="#D9F5F9" opacity="1.000000" stroke="none" 
	d="
M135.653915,117.756256 
	C135.069839,119.488716 134.210281,120.957184 132.934097,122.732246 
	C132.352997,123.096794 132.188538,123.154747 131.782791,123.027023 
	C131.405106,122.266624 131.268692,121.691910 131.107849,121.088638 
	C131.083450,121.060074 131.047501,121.125671 131.288818,121.036484 
	C131.635696,120.643005 131.741241,120.338707 131.952515,119.614273 
	C132.360672,114.462578 132.663101,109.731026 132.983917,104.996765 
	C133.002304,104.994072 132.984299,104.959625 133.211838,104.922333 
	C133.439377,104.885048 133.894821,104.812843 133.894821,104.812843 
	C134.389359,109.039322 134.883896,113.265793 135.653915,117.756256 
z"/>
<path fill="#D9F5F9" opacity="1.000000" stroke="none" 
	d="
M136.931885,90.985237 
	C136.223877,95.273369 135.515869,99.561493 134.336746,103.625580 
	C133.734238,102.995285 133.602844,102.589027 133.558350,101.782158 
	C133.662079,100.565781 133.678894,99.750031 133.856140,98.647171 
	C134.085709,97.928604 134.154831,97.497154 134.475220,96.785469 
	C134.864716,94.731171 135.002960,92.957108 135.347992,91.149185 
	C135.554779,91.115318 135.945145,90.962921 136.191772,90.970779 
	C136.438400,90.978645 136.931885,90.985237 136.931885,90.985237 
z"/>
<path fill="#CFF8FB" opacity="1.000000" stroke="none" 
	d="
M136.955780,90.739433 
	C136.931885,90.985237 136.438400,90.978645 136.198730,90.513763 
	C135.651886,86.030716 135.344742,82.012543 135.071045,77.661438 
	C135.071136,76.884369 135.037781,76.440216 135.004425,75.996071 
	C135.248993,74.218018 135.493561,72.439964 135.948975,70.341476 
	C136.434113,72.072258 136.708389,74.123466 136.986786,76.590088 
	C136.993576,81.028465 136.996246,85.051437 137.006104,89.537628 
	C137.013275,90.000839 136.979660,90.493629 136.955780,90.739433 
z"/>
<path fill="#FBFEF6" opacity="1.000000" stroke="none" 
	d="
M106.399658,32.994339 
	C105.978172,30.962465 105.972672,28.930361 105.957932,26.464502 
	C107.960815,25.996449 110.067650,25.693441 110.019608,28.819811 
	C109.984535,31.102978 110.136497,33.322948 106.399658,32.994339 
z"/>
<path fill="#CBF1F4" opacity="1.000000" stroke="none" 
	d="
M94.130966,59.622013 
	C93.388916,60.176258 92.815964,60.416210 91.973938,60.272873 
	C93.158821,56.269245 94.612793,52.648914 96.270454,48.996517 
	C96.474152,48.964451 96.878387,48.881931 96.961243,48.958496 
	C97.044106,49.035061 97.212074,49.185722 97.212074,49.185722 
	C96.241402,52.559723 95.270729,55.933723 94.130966,59.622013 
z"/>
<path fill="#FBFEF6" opacity="1.000000" stroke="none" 
	d="
M101.438499,20.952824 
	C101.042816,19.882998 101.004227,18.846802 100.954964,17.421324 
	C102.080414,17.040150 103.264984,16.853125 104.337044,17.119278 
	C105.166344,17.325163 105.854782,18.098469 106.605843,18.619522 
	C105.956627,19.391020 105.307411,20.162519 104.303673,20.977150 
	C103.231293,21.009005 102.513435,20.997728 101.438499,20.952824 
z"/>
<path fill="#D7F9FB" opacity="1.000000" stroke="none" 
	d="
M50.992737,81.403648 
	C51.454063,80.735321 51.905315,80.469826 52.604500,80.467468 
	C51.949574,84.823792 51.046719,88.916969 50.048325,93.308540 
	C49.897491,94.019478 49.842190,94.432030 49.835670,94.882339 
	C49.884453,94.920105 49.901039,94.797844 49.673420,94.826050 
	C49.445801,94.854248 49.010990,95.000420 49.010986,95.000420 
	C49.668213,90.602440 50.325439,86.204453 50.992737,81.403648 
z"/>
<path fill="#2B3243" opacity="1.000000" stroke="none" 
	d="
M138.013474,156.994141 
	C139.166229,158.587097 140.318970,160.180069 141.799530,161.908691 
	C142.082703,162.500336 142.038071,162.956329 141.842361,163.727509 
	C141.032578,164.029358 140.373886,164.016006 139.257599,163.692047 
	C138.182877,162.590332 137.565750,161.799255 136.948624,161.008163 
	C136.929657,159.966202 136.910690,158.924225 136.932587,157.455093 
	C136.973480,157.027924 137.041672,156.958710 137.284454,156.972351 
	C137.527222,156.986008 138.013474,156.994141 138.013474,156.994141 
z"/>
<path fill="#D7F9FB" opacity="1.000000" stroke="none" 
	d="
M62.629383,50.134377 
	C61.847862,52.893166 60.744755,55.808533 59.375267,58.962639 
	C60.175194,56.231236 61.241493,53.261093 62.629383,50.134377 
z"/>
<path fill="#6E6E70" opacity="1.000000" stroke="none" 
	d="
M146.097351,148.683258 
	C142.216782,147.150543 144.722794,145.648087 146.468475,144.027954 
	C146.639053,145.440323 146.478958,146.911987 146.097351,148.683258 
z"/>
<path fill="#D7F9FB" opacity="1.000000" stroke="none" 
	d="
M64.812202,47.842007 
	C64.812202,47.842007 64.430473,47.981525 64.231766,48.023205 
	C64.748627,45.744850 65.464195,43.424820 66.518806,40.981934 
	C66.857857,40.859077 67.023163,41.012508 67.035057,41.435318 
	C66.302032,43.852757 65.557121,45.847382 64.812202,47.842007 
z"/>
<path fill="#5478C1" opacity="1.000000" stroke="none" 
	d="
M113.067825,170.335724 
	C113.747345,170.008789 114.443787,170.026993 115.483810,170.050751 
	C116.114685,171.258179 116.401970,172.460052 116.740753,174.034485 
	C115.556412,173.164963 114.320580,171.922913 113.067825,170.335724 
z"/>
<path fill="#CFF8FB" opacity="1.000000" stroke="none" 
	d="
M135.866989,67.903137 
	C134.657394,67.378311 133.515717,66.465454 132.167664,65.318710 
	C135.053345,63.004974 135.716934,64.895737 135.866989,67.903137 
z"/>
<path fill="#5478C1" opacity="1.000000" stroke="none" 
	d="
M110.759720,162.013489 
	C111.629517,164.215332 112.264534,166.405563 112.849976,168.994446 
	C111.863953,167.172562 110.927505,164.952072 110.023071,162.358353 
	C110.055084,161.985138 110.524933,162.001907 110.759720,162.013489 
z"/>
<path fill="#45BCC0" opacity="1.000000" stroke="none" 
	d="
M99.467743,43.415073 
	C99.211952,44.309940 98.956161,45.204811 98.650009,46.444698 
	C98.373329,46.976242 98.201614,47.203945 97.772858,47.697720 
	C97.461220,47.922611 96.984695,47.974880 96.971893,47.607349 
	C97.631172,45.820618 98.303246,44.401421 99.096054,43.093132 
	C99.216789,43.204037 99.467743,43.415073 99.467743,43.415073 
z"/>
<path fill="#388FAB" opacity="1.000000" stroke="none" 
	d="
M50.009537,97.990555 
	C50.009541,97.990555 49.593258,98.000954 49.297039,97.758957 
	C48.941246,97.350693 48.881676,97.184418 48.822102,97.018150 
	C48.872402,96.840088 48.922703,96.662018 49.263824,96.086319 
	C49.781803,95.435204 49.897266,95.138260 49.901039,94.797844 
	C49.901039,94.797844 49.884453,94.920105 50.149559,94.938736 
	C50.625469,94.976379 50.836277,94.995392 51.273083,95.187164 
	C51.653183,95.895660 51.807278,96.431404 51.667511,96.990211 
	C50.918945,97.339035 50.464241,97.664795 50.009537,97.990555 
z"/>
<path fill="#2C98C2" opacity="1.000000" stroke="none" 
	d="
M133.471436,102.182777 
	C133.602844,102.589027 133.734238,102.995285 133.969986,103.706909 
	C134.074326,104.012283 133.922028,104.398697 133.908417,104.605774 
	C133.894821,104.812843 133.439377,104.885048 133.209015,104.631119 
	C133.142899,103.645714 133.307159,102.914246 133.471436,102.182777 
z"/>
<path fill="#D7F9FB" opacity="1.000000" stroke="none" 
	d="
M48.605297,97.216797 
	C48.881676,97.184418 48.941246,97.350693 49.088982,97.766724 
	C48.977863,98.314056 48.778591,98.611618 48.327450,99.013351 
	C48.179882,98.550171 48.284187,97.982811 48.605297,97.216797 
z"/>
<path fill="#D7F9FB" opacity="1.000000" stroke="none" 
	d="
M58.667305,60.103008 
	C58.772614,60.564072 58.662281,61.140167 58.306404,61.891026 
	C58.024349,61.886894 57.987835,61.707993 57.902309,61.259277 
	C58.001781,60.692780 58.201233,60.435635 58.667305,60.103008 
z"/>
<path fill="#2773AF" opacity="1.000000" stroke="none" 
	d="
M49.673420,94.826050 
	C49.897266,95.138260 49.781803,95.435204 49.353512,95.823654 
	C49.152378,95.958626 49.027275,95.487701 49.019135,95.244064 
	C49.010990,95.000420 49.445801,94.854248 49.673420,94.826050 
z"/>
<path fill="#F7FBFB" opacity="1.000000" stroke="none" 
	d="
M109.196533,65.173111 
	C109.198586,65.396179 108.900574,65.644806 108.307526,65.925499 
	C108.307144,65.704597 108.601814,65.451637 109.196533,65.173111 
z"/>
<path fill="#CBF1F4" opacity="1.000000" stroke="none" 
	d="
M96.984695,47.974880 
	C96.984695,47.974880 97.461220,47.922611 97.699837,47.900898 
	C97.817276,48.193188 97.696091,48.507187 97.393494,49.003456 
	C97.212074,49.185722 97.044106,49.035061 96.986603,48.731613 
	C96.929092,48.428165 96.984695,47.974880 96.984695,47.974880 
z"/>
<path fill="#4163B3" opacity="1.000000" stroke="none" 
	d="
M49.050213,149.258881 
	C49.224697,149.262039 49.356186,149.517670 49.349754,149.877167 
	C49.143631,149.824478 49.075424,149.667938 49.050213,149.258881 
z"/>
<path fill="#4B5053" opacity="1.000000" stroke="none" 
	d="
M80.944473,108.939232 
	C81.486610,110.432686 81.647911,112.293442 82.655418,113.338066 
	C84.396820,115.143631 85.883553,118.187767 89.025749,116.212341 
	C88.220482,118.158783 87.434456,120.058723 86.077751,123.338066 
	C89.923767,122.718445 92.195717,122.352417 94.733742,121.943520 
	C95.499039,124.750458 89.976845,128.574554 95.581200,130.614502 
	C94.120445,132.607193 92.893593,134.280823 91.196594,135.651581 
	C88.795090,131.292572 87.027618,127.144119 84.828239,123.238930 
	C84.203262,122.129242 82.320641,121.727867 80.775955,121.131912 
	C80.111763,121.828468 79.686378,122.394760 79.260994,122.961052 
	C79.186829,122.517639 79.112663,122.074219 79.019005,120.855133 
	C79.647835,116.366051 80.296150,112.652641 80.944473,108.939232 
z"/>
<path fill="#3C3C3C" opacity="1.000000" stroke="none" 
	d="
M81.014778,121.001656 
	C82.320641,121.727867 84.203262,122.129242 84.828239,123.238930 
	C87.027618,127.144119 88.795090,131.292572 90.893410,135.694214 
	C91.060371,136.039703 91.009598,136.516464 90.725243,136.976257 
	C90.329140,139.298050 90.217392,141.160034 90.105637,143.022034 
	C90.010376,144.164917 89.915123,145.307800 89.915100,146.733398 
	C89.563896,147.020050 89.117462,147.023987 88.297134,146.668549 
	C85.942772,140.621841 84.034111,134.907471 81.911278,129.273788 
	C81.556816,128.333130 80.271751,127.743149 79.416702,126.991127 
	C79.370628,126.542282 79.324547,126.093437 79.653656,125.220032 
	C80.357483,123.530861 80.686127,122.266258 81.014778,121.001656 
M88.505363,135.089874 
	C88.098473,134.735352 87.691582,134.380844 87.284691,134.026321 
	C87.341179,134.792679 87.397659,135.559052 87.454147,136.325424 
	C87.867775,136.098236 88.281403,135.871063 88.505363,135.089874 
z"/>
<path fill="#2957AB" opacity="1.000000" stroke="none" 
	d="
M49.007908,120.410095 
	C54.395802,121.002022 59.779987,122.000999 65.538689,123.380173 
	C65.608093,125.507729 65.302979,127.255089 64.997864,129.002441 
	C62.379864,129.001617 59.761841,129.006790 57.143864,128.998810 
	C50.869858,128.979706 49.368256,127.467621 49.007908,120.410095 
z"/>
<path fill="#2B3243" opacity="1.000000" stroke="none" 
	d="
M79.346588,127.388855 
	C80.271751,127.743149 81.556816,128.333130 81.911278,129.273788 
	C84.034111,134.907471 85.942772,140.621841 87.962410,146.673218 
	C87.294556,149.622879 86.587540,152.208481 85.516647,154.862244 
	C83.194000,145.882477 81.235229,136.834534 79.346588,127.388855 
z"/>
<path fill="#2B5BB2" opacity="1.000000" stroke="none" 
	d="
M65.003937,129.376160 
	C65.302979,127.255089 65.608093,125.507729 65.955231,123.381104 
	C65.997978,122.251762 65.998711,121.501701 66.331886,120.376251 
	C67.108139,120.000786 67.551949,120.000694 68.157455,120.320435 
	C69.869675,122.419518 71.420197,124.198769 72.970718,125.978020 
	C74.442329,130.487579 71.788193,133.484955 68.659035,137.470352 
	C67.253578,134.496735 66.131790,132.123306 65.003937,129.376160 
z"/>
<path fill="#2C70AD" opacity="1.000000" stroke="none" 
	d="
M80.950020,108.573212 
	C80.296150,112.652641 79.647835,116.366051 78.972839,120.520874 
	C77.957855,120.480301 76.969536,119.998314 75.887383,119.470566 
	C75.164749,120.934593 74.438263,122.406441 73.345413,123.528809 
	C72.654373,119.791115 72.329697,116.402878 72.362396,113.046333 
	C75.212151,114.157501 76.383881,113.641975 77.193863,110.708488 
	C77.822319,108.432457 79.916748,106.561218 81.390717,104.545776 
	C81.421867,104.581512 81.516495,104.587341 81.332977,104.925667 
	C81.097794,105.511337 81.046112,105.758675 80.994431,106.006004 
	C80.981476,106.739731 80.968521,107.473465 80.950020,108.573212 
z"/>
<path fill="#2D6ABF" opacity="1.000000" stroke="none" 
	d="
M72.005020,113.014648 
	C72.329697,116.402878 72.654373,119.791115 72.988922,123.595413 
	C72.994850,124.448669 72.990906,124.885857 72.978836,125.650528 
	C71.420197,124.198769 69.869675,122.419518 68.158722,119.882927 
	C67.995712,117.084335 67.993126,115.043083 67.990540,113.001831 
	C68.741173,112.999893 69.491798,112.997963 70.870804,112.999313 
	C71.667793,113.006622 71.836411,113.010635 72.005020,113.014648 
z"/>
<path fill="#2B3243" opacity="1.000000" stroke="none" 
	d="
M80.775955,121.131912 
	C80.686127,122.266258 80.357483,123.530861 79.717148,124.885918 
	C79.326447,124.531685 79.247437,124.086990 79.214706,123.301682 
	C79.686378,122.394760 80.111763,121.828468 80.775955,121.131912 
z"/>
<path fill="#2D51A7" opacity="1.000000" stroke="none" 
	d="
M63.003677,170.004578 
	C62.909069,170.041321 62.810783,170.073502 62.851658,170.049286 
	C62.990818,169.992889 63.000000,170.000000 63.003677,170.004578 
z"/>
<path fill="#606263" opacity="1.000000" stroke="none" 
	d="
M83.668953,98.948669 
	C87.437645,93.380203 91.206345,87.811729 95.575081,82.212517 
	C96.346497,84.125092 96.517868,86.068420 96.581009,86.784454 
	C98.172600,88.285881 99.071808,89.134155 99.697662,90.179962 
	C99.286232,92.250313 99.148163,94.123138 98.973267,96.335831 
	C97.957161,97.449867 96.977890,98.224014 95.738327,99.104637 
	C94.982170,99.474014 94.486290,99.736916 93.990417,99.999825 
	C92.707878,100.119858 91.393257,100.102470 90.150429,100.392609 
	C88.353760,100.812042 86.609116,101.454277 84.341690,101.625847 
	C83.783722,100.483047 83.726341,99.715858 83.668953,98.948669 
z"/>
<path fill="#545657" opacity="1.000000" stroke="none" 
	d="
M93.992096,100.388809 
	C94.486290,99.736916 94.982170,99.474014 95.808083,99.467621 
	C97.412979,100.553757 98.687828,101.383392 99.378143,101.832626 
	C99.665703,104.539406 99.888542,106.636948 100.111374,108.734489 
	C101.407280,107.829750 102.703186,106.925011 104.137650,106.346596 
	C104.178993,110.750732 104.081795,114.828552 103.984589,118.906357 
	C103.692062,119.095291 103.399536,119.284225 102.937943,119.677597 
	C101.272888,118.565002 99.776901,117.247971 98.449982,116.079781 
	C97.164940,116.254730 95.627884,116.463989 94.173805,116.042114 
	C94.536156,114.615364 94.815514,113.819748 95.094864,113.024124 
	C95.665100,112.410095 96.815338,111.669052 96.713127,111.202271 
	C95.945534,107.697037 94.931038,104.245872 93.992096,100.388809 
z"/>
<path fill="#CBF1F4" opacity="1.000000" stroke="none" 
	d="
M83.379150,98.887360 
	C83.726341,99.715858 83.783722,100.483047 83.947449,101.623993 
	C83.758774,102.747581 83.463760,103.497406 82.837143,104.588173 
	C82.505539,104.929115 82.057320,104.951530 81.960800,104.803040 
	C81.864281,104.654541 81.516495,104.587341 81.516495,104.587341 
	C81.516495,104.587341 81.421867,104.581512 81.313293,104.257256 
	C81.092781,102.293755 80.980843,100.654503 80.930473,98.635948 
	C81.459877,96.822433 81.927704,95.388229 82.395531,93.954025 
	C82.626801,95.578033 82.858070,97.202049 83.379150,98.887360 
z"/>
<path fill="#4B5053" opacity="1.000000" stroke="none" 
	d="
M90.454010,142.951141 
	C90.217392,141.160034 90.329140,139.298050 90.705521,137.215179 
	C90.914230,138.956284 90.858315,140.918259 90.454010,142.951141 
z"/>
<path fill="#6E6E70" opacity="1.000000" stroke="none" 
	d="
M94.697777,113.014816 
	C94.815514,113.819748 94.536156,114.615364 94.117722,115.699051 
	C93.053352,115.440605 92.128052,114.894096 91.202759,114.347588 
	C92.235397,113.900223 93.268044,113.452858 94.697777,113.014816 
z"/>
<path fill="#4B5053" opacity="1.000000" stroke="none" 
	d="
M82.057320,104.951530 
	C82.057320,104.951530 82.505539,104.929115 82.724396,104.879539 
	C83.066139,105.710159 83.189018,106.590363 83.311890,107.470558 
	C82.881447,107.144569 82.451004,106.818581 82.013336,105.956047 
	C82.006104,105.419502 82.057320,104.951530 82.057320,104.951530 
z"/>
<path fill="#2884BB" opacity="1.000000" stroke="none" 
	d="
M81.960800,104.803040 
	C82.057320,104.951530 82.006104,105.419502 81.971466,105.651733 
	C81.936836,105.883972 81.467613,105.959702 81.231026,105.982849 
	C81.046112,105.758675 81.097794,105.511337 81.332977,104.925667 
	C81.516495,104.587341 81.864281,104.654541 81.960800,104.803040 
z"/>
<path fill="#24ACC1" opacity="1.000000" stroke="none" 
	d="
M96.066757,49.028584 
	C94.612793,52.648914 93.158821,56.269245 91.664963,60.243523 
	C91.625069,60.597469 91.644081,60.684124 91.447983,60.857140 
	C91.185219,61.355450 91.118568,61.680744 91.051910,62.006042 
	C91.051910,62.006042 90.862282,62.351223 90.621902,62.759712 
	C90.229759,63.766991 90.077988,64.365776 89.926208,64.964561 
	C89.926208,64.964561 89.993073,65.001457 89.655060,65.163460 
	C87.586563,70.560158 85.856079,75.794846 83.845840,81.017548 
	C83.379494,80.999840 83.192909,80.994118 83.052933,80.591347 
	C83.353691,77.936150 84.668640,74.780251 83.661171,73.589821 
	C80.750313,70.150337 81.656494,66.659164 82.295471,62.757824 
	C82.452484,57.348530 85.125099,55.413116 90.370453,55.954048 
	C91.492630,53.591999 92.258018,51.301186 93.264160,49.007576 
	C93.504906,49.004776 93.986076,48.986271 94.332924,48.987663 
	C95.142097,49.002232 95.604431,49.015408 96.066757,49.028584 
z"/>
<path fill="#299FC2" opacity="1.000000" stroke="none" 
	d="
M83.006317,80.988403 
	C83.192909,80.994118 83.379494,80.999840 83.839767,81.427475 
	C83.628410,85.264618 83.143387,88.679840 82.658356,92.095062 
	C82.562195,92.503593 82.466026,92.912125 82.382690,93.637344 
	C81.927704,95.388229 81.459877,96.822433 80.688293,98.832962 
	C78.258911,99.939636 76.133263,100.469978 74.007523,100.668144 
	C74.008270,99.893066 74.009117,99.450165 74.272385,98.796738 
	C74.360619,96.058495 74.186424,93.530769 74.285942,90.886528 
	C75.205330,90.015358 75.850998,89.260704 77.377274,87.476814 
	C74.728600,88.182007 73.656929,88.467331 72.585266,88.752655 
	C72.354492,88.455940 72.123718,88.159233 71.892944,87.862518 
	C73.262108,86.243690 74.631271,84.624863 76.267151,83.221710 
	C77.092491,84.316223 77.651138,85.195053 78.381317,86.343750 
	C80.129578,84.319412 81.567947,82.653908 83.006317,80.988403 
z"/>
<path fill="#333534" opacity="1.000000" stroke="none" 
	d="
M99.947769,76.824562 
	C99.991135,76.491669 100.178734,76.300644 101.077148,76.477386 
	C104.203850,77.192924 102.963905,82.394127 107.016464,81.465645 
	C107.028053,83.618469 107.038055,85.340965 106.994530,87.398331 
	C106.027679,89.483398 105.114342,91.233604 103.839142,92.947708 
	C102.982773,91.940071 102.488258,90.968536 102.260040,89.762344 
	C102.535164,88.257530 102.777176,85.933784 102.517616,85.876328 
	C99.011955,85.100464 100.035606,82.958145 100.505600,80.676346 
	C100.751724,79.481415 100.160713,78.114052 99.947769,76.824562 
z"/>
<path fill="#4A494A" opacity="1.000000" stroke="none" 
	d="
M99.644318,76.983597 
	C100.160713,78.114052 100.751724,79.481415 100.505600,80.676346 
	C100.035606,82.958145 99.011955,85.100464 102.517616,85.876328 
	C102.777176,85.933784 102.535164,88.257530 101.923157,89.762924 
	C100.870323,89.992912 100.420670,89.987679 99.971016,89.982437 
	C99.071808,89.134155 98.172600,88.285881 96.581009,86.784454 
	C96.517868,86.068420 96.346497,84.125092 95.829315,82.020645 
	C96.769295,80.287231 98.055084,78.714935 99.644318,76.983597 
z"/>
<path fill="#CBF1F4" opacity="1.000000" stroke="none" 
	d="
M82.951660,91.937767 
	C83.143387,88.679840 83.628410,85.264618 84.119522,81.439468 
	C85.856079,75.794846 87.586563,70.560158 89.631714,65.133270 
	C88.711952,70.657089 87.575882,76.396805 86.205292,82.079971 
	C85.414108,85.360641 84.244339,88.550011 82.951660,91.937767 
z"/>
<path fill="#0C3A46" opacity="1.000000" stroke="none" 
	d="
M107.048050,87.063469 
	C107.038055,85.340965 107.028053,83.618469 107.301628,81.183495 
	C108.443962,76.879272 108.919144,73.521210 103.494980,73.757126 
	C104.051270,72.562828 104.607559,71.368530 105.422981,69.951355 
	C111.030121,71.912346 110.224937,76.240555 109.725067,81.152580 
	C109.343620,83.480164 108.692635,85.211456 107.792419,86.968704 
	C107.543190,86.994652 107.048050,87.063469 107.048050,87.063469 
z"/>
<path fill="#252424" opacity="1.000000" stroke="none" 
	d="
M103.166168,73.799896 
	C108.919144,73.521210 108.443962,76.879272 107.300034,80.753174 
	C102.963905,82.394127 104.203850,77.192924 101.280685,76.418213 
	C101.557549,75.369659 102.197456,74.606155 103.166168,73.799896 
z"/>
<path fill="#CBF1F4" opacity="1.000000" stroke="none" 
	d="
M90.213531,64.798195 
	C90.077988,64.365776 90.229759,63.766991 90.611473,62.956360 
	C90.727898,63.373615 90.614372,64.002724 90.213531,64.798195 
z"/>
<path fill="#CBF1F4" opacity="1.000000" stroke="none" 
	d="
M91.273392,61.870361 
	C91.118568,61.680744 91.185219,61.355450 91.468735,60.896339 
	C91.622017,61.086578 91.558449,61.410633 91.273392,61.870361 
z"/>
<path fill="#2E5185" opacity="1.000000" stroke="none" 
	d="
M132.024063,123.212708 
	C132.188538,123.154747 132.352997,123.096794 132.778320,123.014313 
	C133.034256,124.039421 133.029343,125.089058 133.005127,126.943771 
	C133.004227,128.843353 133.022644,129.937866 133.041077,131.032379 
	C133.029053,131.756653 133.017044,132.480911 132.988922,134.030334 
	C134.011826,141.248505 135.050797,147.641525 136.067719,154.402161 
	C136.031738,155.505356 136.017822,156.240952 136.003906,156.976562 
	C135.478683,156.725006 134.953445,156.473465 134.211075,155.708984 
	C132.995346,150.799210 131.996750,146.402344 131.003540,141.604706 
	C130.937592,139.237991 131.070557,137.235748 130.729523,135.317764 
	C130.463211,133.820160 129.608261,132.427216 129.068695,130.642441 
	C130.089691,127.935646 131.056885,125.574181 132.024063,123.212708 
z"/>
<path fill="#747472" opacity="1.000000" stroke="none" 
	d="
M145.247162,112.236954 
	C146.421249,112.306450 147.867020,112.598648 149.642914,112.938873 
	C149.973007,112.986908 150.000488,112.998268 150.003952,113.411987 
	C148.690628,116.885300 147.373840,119.944893 145.805817,122.854462 
	C145.036606,122.136162 144.518600,121.567886 144.000610,120.999611 
	C144.506683,118.152962 145.012772,115.306313 145.247162,112.236954 
z"/>
<path fill="#666666" opacity="1.000000" stroke="none" 
	d="
M143.654144,121.035034 
	C144.518600,121.567886 145.036606,122.136162 145.784454,123.185089 
	C146.006210,124.107285 145.998123,124.548813 145.617538,124.995583 
	C144.496017,125.000587 143.746979,125.000359 142.997955,125.000137 
	C142.117386,124.597984 141.236801,124.195824 140.356232,123.793655 
	C141.340042,122.885925 142.323853,121.978195 143.654144,121.035034 
z"/>
<path fill="#747472" opacity="1.000000" stroke="none" 
	d="
M142.998413,125.375107 
	C143.746979,125.000359 144.496017,125.000587 145.535065,125.253273 
	C145.905807,126.674934 145.986542,127.844147 146.067291,129.013351 
	C145.889465,129.009201 145.711624,129.005051 145.266998,129.000381 
	C145.000214,128.999878 144.999680,129.000687 144.835693,128.756592 
	C144.116364,128.341080 143.561035,128.169662 143.005692,127.998260 
	C143.003433,127.248871 143.001160,126.499466 142.998413,125.375107 
z"/>
<path fill="#666666" opacity="1.000000" stroke="none" 
	d="
M142.743042,128.118958 
	C143.561035,128.169662 144.116364,128.341080 144.830612,128.764542 
	C143.948486,129.253021 142.907440,129.489456 141.866425,129.725891 
	C142.071075,129.230484 142.275726,128.735077 142.743042,128.118958 
z"/>
<path fill="#263142" opacity="1.000000" stroke="none" 
	d="
M133.284851,130.831970 
	C133.022644,129.937866 133.004227,128.843353 133.010574,127.336914 
	C133.597122,127.109138 134.158890,127.293289 134.887222,127.729492 
	C134.545410,128.864868 134.037033,129.748199 133.284851,130.831970 
z"/>
<path fill="#2557A6" opacity="1.000000" stroke="none" 
	d="
M129.014877,130.987762 
	C129.608261,132.427216 130.463211,133.820160 130.729523,135.317764 
	C131.070557,137.235748 130.937592,139.237991 130.629333,141.602509 
	C129.501297,142.001938 128.752823,142.002792 127.797180,141.744339 
	C126.391319,142.657898 125.192612,143.830780 123.993896,145.003662 
	C120.247971,145.003662 116.502045,145.003662 112.575424,145.003662 
	C112.682167,146.345261 112.829094,148.192001 112.987022,150.176895 
	C111.104195,147.658371 109.403603,145.383606 107.357552,143.049377 
	C106.999153,142.551773 106.986214,142.113632 107.250290,141.116364 
	C107.685791,139.373123 107.844269,138.189011 108.246246,136.850250 
	C108.992516,136.130020 109.495300,135.564407 110.249222,134.999084 
	C110.667763,134.999359 110.835167,134.999329 111.001343,135.368011 
	C111.000114,136.844223 111.000114,137.951736 111.000114,138.594833 
	C113.664482,136.727905 116.330711,134.859680 119.341385,132.940613 
	C121.112411,132.264740 122.538979,131.639694 123.974762,131.379745 
	C124.606071,132.716217 125.228149,133.687622 125.850235,134.658997 
	C126.905106,133.435257 127.959984,132.211502 129.014877,130.987762 
z"/>
<path fill="#2749A0" opacity="1.000000" stroke="none" 
	d="
M128.004333,142.003662 
	C128.752823,142.002792 129.501297,142.001938 130.623978,142.003281 
	C131.996750,146.402344 132.995346,150.799210 133.998978,155.588562 
	C134.004028,157.301880 134.004028,158.622681 134.004028,161.125824 
	C132.996140,159.689163 132.569946,159.081665 131.995819,158.263306 
	C129.380463,160.665741 134.263870,166.326385 127.874214,167.174500 
	C124.559303,167.614471 121.321388,171.007721 118.370438,166.060425 
	C118.008484,164.607635 118.005424,163.220795 117.996292,161.417877 
	C118.433891,161.000885 118.877571,160.999939 119.964165,160.870453 
	C121.970924,160.583298 123.334770,160.424667 125.075912,160.222153 
	C122.227974,154.865219 127.441589,154.386322 129.677429,152.311203 
	C129.096237,148.730667 128.550293,145.367157 128.004333,142.003662 
z"/>
<path fill="#224599" opacity="1.000000" stroke="none" 
	d="
M127.797180,141.744339 
	C128.550293,145.367157 129.096237,148.730667 129.677429,152.311203 
	C127.441589,154.386322 122.227974,154.865219 125.075912,160.222153 
	C123.334770,160.424667 121.970924,160.583298 120.296829,160.869751 
	C118.761116,155.010468 122.014885,150.315018 124.240021,145.198792 
	C125.192612,143.830780 126.391319,142.657898 127.797180,141.744339 
z"/>
<path fill="#217DB2" opacity="1.000000" stroke="none" 
	d="
M74.009964,99.007263 
	C74.009117,99.450165 74.008270,99.893066 73.955429,101.064453 
	C72.937912,104.529137 71.972389,107.265335 71.006866,110.001541 
	C70.497131,108.676117 70.361237,106.676010 69.409348,106.148560 
	C66.232872,104.388443 64.268967,102.319473 64.816765,98.404327 
	C64.900520,97.805733 63.842220,96.772156 63.084637,96.385506 
	C61.226135,95.436958 59.234814,94.748650 57.283920,93.950325 
	C57.397053,97.639977 55.174633,99.687927 50.251236,98.271164 
	C50.464241,97.664795 50.918945,97.339035 52.068123,96.988998 
	C53.506863,95.993423 54.523697,95.123314 54.930733,94.026833 
	C55.523621,92.429726 55.677593,90.669693 56.239487,88.966957 
	C56.460278,88.954796 56.902481,88.961761 57.257874,89.020226 
	C60.031120,91.156525 61.455666,95.779465 66.127975,92.213448 
	C66.520866,91.913574 68.560791,93.458603 69.606636,94.400627 
	C71.180557,95.818329 72.552277,97.460518 74.009964,99.007263 
z"/>
<path fill="#2468AE" opacity="1.000000" stroke="none" 
	d="
M67.602791,112.989761 
	C67.993126,115.043083 67.995712,117.084335 67.997025,119.563095 
	C67.551949,120.000694 67.108139,120.000786 66.331413,120.001251 
	C65.037888,118.674789 63.650558,117.476059 63.205769,115.994377 
	C62.287350,112.934937 60.573547,112.852386 57.903740,113.470604 
	C52.829956,114.645508 50.445633,113.102112 49.999657,108.413300 
	C50.176384,107.202003 50.290161,105.739334 50.540081,105.715683 
	C53.581791,105.427917 56.650429,105.439484 59.698380,105.199440 
	C63.908741,104.867828 64.344643,107.860794 65.107010,110.836639 
	C65.321861,111.675293 66.486198,112.270706 67.602791,112.989761 
z"/>
<path fill="#2884BB" opacity="1.000000" stroke="none" 
	d="
M71.004616,110.375687 
	C71.972389,107.265335 72.937912,104.529137 73.955528,101.396622 
	C76.133263,100.469978 78.258911,99.939636 80.626724,99.212280 
	C80.980843,100.654503 81.092781,102.293755 81.282150,104.221527 
	C79.916748,106.561218 77.822319,108.432457 77.193863,110.708488 
	C76.383881,113.641975 75.212151,114.157501 72.362396,113.046333 
	C71.836411,113.010635 71.667793,113.006622 71.246109,112.998398 
	C70.996155,112.246078 70.999260,111.497955 71.004616,110.375687 
z"/>
<path fill="#1FADC6" opacity="1.000000" stroke="none" 
	d="
M133.558334,101.782158 
	C133.307159,102.914246 133.142899,103.645714 132.981476,104.668411 
	C132.984299,104.959625 133.002304,104.994072 132.731476,105.199974 
	C132.026382,106.167244 131.592133,106.928612 130.687057,108.515480 
	C130.336700,106.718170 130.167465,105.849976 130.271637,104.758568 
	C130.030838,98.358124 129.516647,92.180893 129.002441,86.003662 
	C131.424942,78.758011 127.571075,70.568954 120.519402,67.875618 
	C119.981079,67.670013 119.588165,67.083679 119.515884,66.318428 
	C122.263977,65.948349 124.623863,65.934158 126.983742,65.919968 
	C128.668488,68.305321 130.338623,70.701210 132.045013,73.070976 
	C132.748734,74.048271 133.530396,74.969452 134.640503,75.956116 
	C135.037781,76.440216 135.071136,76.884369 134.762299,77.808998 
	C134.660477,82.587334 134.900848,86.885193 135.141205,91.183044 
	C135.002960,92.957108 134.864716,94.731171 134.221771,96.861557 
	C133.709930,97.790009 133.702820,98.362144 133.695709,98.934273 
	C133.678894,99.750031 133.662079,100.565781 133.558334,101.782158 
z"/>
<path fill="#0F8BB0" opacity="1.000000" stroke="none" 
	d="
M111.924385,79.946861 
	C111.923798,78.274101 111.923218,76.601349 111.885071,74.517044 
	C112.518684,72.842468 113.189865,71.579445 114.017845,70.021362 
	C120.729477,73.386757 124.995941,78.281464 124.960052,86.971626 
	C125.277260,91.182854 125.637871,94.591583 125.631180,97.993347 
	C123.175308,94.989548 121.086746,91.992706 118.998505,88.598999 
	C119.176224,86.655357 119.353622,85.108582 119.435600,84.393768 
	C116.578400,82.702202 114.251389,81.324532 111.924385,79.946861 
z"/>
<path fill="#1896BD" opacity="1.000000" stroke="none" 
	d="
M125.998474,98.000305 
	C125.637871,94.591583 125.277260,91.182854 124.964584,87.389053 
	C126.112465,86.690712 127.212418,86.377449 128.657410,86.033928 
	C129.516647,92.180893 130.030838,98.358124 130.039841,104.560455 
	C128.026703,104.724487 126.518776,104.863411 124.743027,104.788391 
	C124.982964,102.383064 125.490715,100.191681 125.998474,98.000305 
z"/>
<path fill="#48A9B7" opacity="1.000000" stroke="none" 
	d="
M126.991135,65.686829 
	C124.623863,65.934158 122.263977,65.948349 119.462852,65.963875 
	C118.177414,65.866722 117.333221,65.768234 116.252792,65.455887 
	C119.434631,65.061462 122.852699,64.880905 126.635452,64.843773 
	C127.000130,64.987190 126.998535,65.453697 126.991135,65.686829 
z"/>
<path fill="#305ECB" opacity="1.000000" stroke="none" 
	d="
M138.029144,167.755737 
	C136.289948,169.399994 134.533905,170.716278 132.412231,172.040756 
	C129.816910,167.562943 134.927063,168.307938 136.154129,166.285522 
	C136.773514,166.666260 137.392899,167.047012 138.029144,167.755737 
z"/>
<path fill="#2E5185" opacity="1.000000" stroke="none" 
	d="
M136.714386,161.201508 
	C137.565750,161.799255 138.182877,162.590332 138.928436,163.661774 
	C138.197952,163.093018 137.339050,162.243927 136.714386,161.201508 
z"/>
<path fill="#2B3243" opacity="1.000000" stroke="none" 
	d="
M136.227676,157.016632 
	C136.017822,156.240952 136.031738,155.505356 136.310226,154.609955 
	C136.730423,155.286331 136.886047,156.122528 137.041672,156.958710 
	C137.041672,156.958710 136.973480,157.027924 136.938705,157.064270 
	C136.903931,157.100616 136.451431,157.056686 136.227676,157.016632 
z"/>
<path fill="#263142" opacity="1.000000" stroke="none" 
	d="
M137.284454,156.972351 
	C136.886047,156.122528 136.730423,155.286331 136.332291,154.242355 
	C135.050797,147.641525 134.011826,141.248505 133.004135,134.392303 
	C133.709229,134.537643 134.867508,135.067062 134.981705,135.766891 
	C136.093002,142.576187 137.029602,149.413986 138.014725,156.618896 
	C138.013474,156.994141 137.527222,156.986008 137.284454,156.972351 
z"/>
<path fill="#388FAB" opacity="1.000000" stroke="none" 
	d="
M56.902481,88.961761 
	C56.902481,88.961761 56.460278,88.954796 55.876312,88.965797 
	C53.878723,90.333076 52.465099,91.689354 50.824593,93.036240 
	C50.597706,93.026855 50.143860,93.010155 50.143860,93.010155 
	C51.046719,88.916969 51.949574,84.823792 52.836388,80.342163 
	C52.919609,79.537476 53.018879,79.121223 53.319435,78.182915 
	C53.722557,77.120338 53.924393,76.579819 54.347343,76.201775 
	C54.714825,76.879745 54.861187,77.395241 54.999031,78.257492 
	C54.988274,79.066536 54.986031,79.528847 54.827499,80.354202 
	C53.570835,83.964523 52.942635,87.083992 56.902481,88.961761 
z"/>
<path fill="#D7F9FB" opacity="1.000000" stroke="none" 
	d="
M54.126228,76.039307 
	C53.924393,76.579819 53.722557,77.120338 53.311996,77.860664 
	C49.805496,72.704659 54.214256,69.187859 56.641266,65.084320 
	C57.084671,65.076309 57.298248,65.272774 57.298737,65.549828 
	C57.278126,66.195000 57.257027,66.563118 57.047047,67.254227 
	C55.947517,70.397911 55.036873,73.218605 54.126228,76.039307 
z"/>
<path fill="#D7F9FB" opacity="1.000000" stroke="none" 
	d="
M57.798180,62.197521 
	C58.023319,62.769913 57.966053,63.513157 57.777500,64.710342 
	C57.646210,65.164291 57.298248,65.272774 57.298248,65.272774 
	C57.298248,65.272774 57.084671,65.076309 56.976521,64.977371 
	C57.084171,64.041756 57.299973,63.205063 57.798180,62.197521 
z"/>
<path fill="#858585" opacity="1.000000" stroke="none" 
	d="
M146.049408,129.420044 
	C145.986542,127.844147 145.905807,126.674934 145.907562,125.248039 
	C145.998123,124.548813 146.006210,124.107285 146.035675,123.335114 
	C147.373840,119.944893 148.690628,116.885300 150.017700,113.414749 
	C151.138016,112.516136 152.248062,112.028473 153.696198,111.392288 
	C153.821289,112.596497 153.911301,113.462914 154.000732,114.671066 
	C152.678864,119.394600 151.357544,123.776382 150.018799,128.578720 
	C150.001389,128.999268 149.981735,129.023056 149.981735,129.023056 
	C149.650330,130.448395 149.318909,131.873718 149.016251,133.626846 
	C145.568817,134.383057 145.995193,131.962524 146.049408,129.420044 
z"/>
<path fill="#10C0CC" opacity="1.000000" stroke="none" 
	d="
M83.414581,16.827549 
	C84.069244,16.150763 84.774300,15.883580 85.099174,15.374019 
	C87.784218,11.162510 90.620110,11.752892 93.701736,14.922166 
	C94.938004,16.193592 96.359322,17.285080 97.839935,19.120369 
	C99.000412,20.848904 100.017365,21.915533 101.034309,22.982162 
	C101.034309,22.982164 101.000862,23.001919 100.999580,23.294666 
	C101.336021,24.064281 101.673744,24.541149 102.011459,25.018019 
	C102.314552,25.795422 102.617645,26.572823 102.935532,28.106709 
	C103.037323,30.284239 103.124321,31.705284 103.211327,33.126331 
	C103.211327,33.126331 103.194496,33.171696 102.859161,33.266808 
	C102.029716,34.926449 101.535599,36.490982 101.041481,38.055515 
	C101.041481,38.055515 100.999329,38.008972 100.755432,38.192955 
	C99.989960,39.578342 99.468391,40.779747 98.595184,41.919113 
	C97.492752,39.904465 96.741951,37.951851 96.039902,35.605797 
	C98.479263,26.959064 95.230804,22.517839 86.549507,21.805752 
	C85.267342,21.700583 84.082710,20.406181 82.852966,19.661993 
	C82.998230,18.816269 83.143494,17.970545 83.414581,16.827549 
z"/>
<path fill="#0DADBF" opacity="1.000000" stroke="none" 
	d="
M68.789871,39.673920 
	C72.230972,34.148720 75.672066,28.623522 79.504906,23.338463 
	C80.136322,25.561825 80.046509,29.145973 80.668022,29.273880 
	C85.452347,30.258526 88.436890,33.264942 90.999939,37.379169 
	C90.332954,38.836605 89.667236,39.918530 88.565834,41.000038 
	C83.280327,41.829056 79.713058,40.346073 78.255936,34.841091 
	C76.964516,35.754536 75.827896,36.211349 75.222946,37.051147 
	C73.370781,39.622353 71.722809,42.340649 69.718735,44.994362 
	C69.257713,44.978191 69.073395,44.969395 68.903641,44.521492 
	C68.875420,42.612900 68.832649,41.143414 68.789871,39.673920 
z"/>
<path fill="#04B8C6" opacity="1.000000" stroke="none" 
	d="
M91.001221,37.003662 
	C88.436890,33.264942 85.452347,30.258526 80.668022,29.273880 
	C80.046509,29.145973 80.136322,25.561825 79.810219,23.194843 
	C79.723785,22.811079 79.762047,22.837683 80.144150,22.855053 
	C80.987854,22.169830 81.449448,21.467234 81.911041,20.764637 
	C82.066833,20.466993 82.222626,20.169352 82.615692,19.766853 
	C84.082710,20.406181 85.267342,21.700583 86.549507,21.805752 
	C95.230804,22.517839 98.479263,26.959064 95.675827,35.644981 
	C93.842407,36.386295 92.421814,36.694981 91.001221,37.003662 
z"/>
<path fill="#3DA8B7" opacity="1.000000" stroke="none" 
	d="
M68.555481,39.822308 
	C68.832649,41.143414 68.875420,42.612900 68.664276,44.711792 
	C67.337334,46.276901 66.264320,47.212608 65.191307,48.148315 
	C65.191307,48.148315 65.001709,47.995628 64.906952,47.918816 
	C65.557121,45.847382 66.302032,43.852757 67.119118,41.510498 
	C67.567879,40.765476 67.944481,40.368084 68.555481,39.822308 
z"/>
<path fill="#0DADBF" opacity="1.000000" stroke="none" 
	d="
M81.593918,20.847242 
	C81.449448,21.467234 80.987854,22.169830 80.166397,22.861137 
	C80.296623,22.209846 80.786705,21.569845 81.593918,20.847242 
z"/>
<path fill="#45BCC0" opacity="1.000000" stroke="none" 
	d="
M101.330124,37.858997 
	C101.535599,36.490982 102.029716,34.926449 102.883331,33.265656 
	C102.701477,34.667091 102.160126,36.164787 101.330124,37.858997 
z"/>
<path fill="#45BCC0" opacity="1.000000" stroke="none" 
	d="
M101.020630,22.689541 
	C100.017365,21.915533 99.000412,20.848904 97.995514,19.423630 
	C98.740135,19.680782 99.472710,20.296579 100.434113,21.095398 
	C100.777618,21.651251 100.892288,22.024084 101.020630,22.689541 
z"/>
<path fill="#45BCC0" opacity="1.000000" stroke="none" 
	d="
M98.946823,41.981152 
	C99.468391,40.779747 99.989960,39.578342 100.786652,38.196278 
	C100.673500,39.623783 100.285233,41.231956 99.682358,43.127602 
	C99.467743,43.415073 99.216789,43.204037 99.096497,42.842739 
	C98.966415,42.314678 98.956619,42.147915 98.946823,41.981152 
z"/>
<path fill="#45BCC0" opacity="1.000000" stroke="none" 
	d="
M103.467369,32.876938 
	C103.124321,31.705284 103.037323,30.284239 102.964676,28.436798 
	C103.227150,29.549454 103.475281,31.088499 103.467369,32.876938 
z"/>
<path fill="#45BCC0" opacity="1.000000" stroke="none" 
	d="
M101.989868,24.713421 
	C101.673744,24.541149 101.336021,24.064281 101.009552,23.278168 
	C101.336632,23.448889 101.652451,23.928858 101.989868,24.713421 
z"/>
<path fill="#858585" opacity="1.000000" stroke="none" 
	d="
M150.013367,128.989334 
	C150.148804,129.138885 150.272247,129.298386 150.395706,129.457870 
	C150.297562,129.410812 150.199402,129.363754 150.041504,129.169876 
	C149.981735,129.023056 150.001389,128.999268 150.013367,128.989334 
z"/>
<path fill="#1E6EAD" opacity="1.000000" stroke="none" 
	d="
M105.999603,120.996948 
	C105.994118,119.946609 105.988625,118.896263 105.989746,117.094727 
	C106.328979,115.229118 106.661583,114.114716 107.394272,113.002029 
	C110.591057,113.600113 113.403824,114.131256 116.178902,114.815315 
	C118.093399,115.287231 119.955734,115.970718 121.841377,116.559654 
	C121.675064,116.954712 121.508743,117.349770 121.342430,117.744827 
	C122.228386,117.165253 123.114349,116.585678 123.997490,116.373199 
	C123.993202,118.828392 123.991730,120.916473 123.596786,122.996078 
	C118.343575,119.467712 113.098236,121.875732 107.834305,121.753120 
	C107.111252,121.337288 106.555428,121.167114 105.999603,120.996948 
z"/>
<path fill="#2861AE" opacity="1.000000" stroke="none" 
	d="
M105.985260,121.463913 
	C106.555428,121.167114 107.111252,121.337288 107.723984,122.045898 
	C108.519958,126.722481 109.259018,130.860626 109.998077,134.998779 
	C109.495300,135.564407 108.992516,136.130020 107.912750,136.848328 
	C106.891212,136.997223 106.446678,136.993439 106.002136,136.989624 
	C105.991730,131.970047 105.981323,126.950462 105.985260,121.463913 
z"/>
<path fill="#316486" opacity="1.000000" stroke="none" 
	d="
M106.994179,113.000305 
	C106.661583,114.114716 106.328979,115.229118 105.983810,116.700798 
	C105.482780,117.605438 104.994308,118.152809 104.245209,118.803268 
	C104.081795,114.828552 104.178993,110.750732 104.354279,106.234238 
	C104.706299,105.583939 104.858932,105.305756 104.961746,104.972244 
	C105.033234,104.983475 105.172424,105.023117 105.474319,105.011551 
	C106.180359,105.005379 106.584503,105.010773 106.992340,105.390060 
	C107.007553,106.512901 107.019073,107.261848 107.021835,108.426514 
	C107.006775,110.228249 107.000473,111.614273 106.994179,113.000305 
z"/>
<path fill="#3055AF" opacity="1.000000" stroke="none" 
	d="
M105.992317,137.355530 
	C106.446678,136.993439 106.891212,136.997223 107.669250,137.002960 
	C107.844269,138.189011 107.685791,139.373123 107.249107,140.787506 
	C106.641434,139.918991 106.311966,138.820190 105.992317,137.355530 
z"/>
<path fill="#127EA9" opacity="1.000000" stroke="none" 
	d="
M111.672043,80.072418 
	C114.251389,81.324532 116.578400,82.702202 119.435600,84.393768 
	C119.353622,85.108582 119.176224,86.655357 118.667244,88.651825 
	C116.557571,93.067474 114.779488,97.033432 112.748322,100.998009 
	C112.326553,100.993515 112.157867,100.990395 111.964920,100.670120 
	C111.626472,99.570335 111.312286,98.787689 110.893143,97.787468 
	C110.594200,97.296455 110.336502,97.112053 109.686256,97.011169 
	C108.919472,97.006973 108.481537,97.008278 108.036095,96.596001 
	C108.032944,93.102524 108.037292,90.022636 108.041641,86.942749 
	C108.692635,85.211456 109.343620,83.480164 109.972443,81.390205 
	C110.440079,80.753693 110.929893,80.475838 111.672043,80.072418 
z"/>
<path fill="#109DBB" opacity="1.000000" stroke="none" 
	d="
M65.082550,48.516731 
	C66.264320,47.212608 67.337334,46.276901 68.649719,45.150898 
	C69.073395,44.969395 69.257713,44.978191 69.763916,45.375648 
	C70.788872,49.443592 73.751289,49.650570 76.175354,48.745041 
	C77.519821,48.242802 78.083878,45.651421 78.999847,44.000839 
	C79.000000,44.000000 79.001534,43.999599 79.361099,44.065750 
	C80.716003,46.768307 82.396912,49.370251 82.531616,52.049923 
	C82.696671,55.333542 81.567703,58.682205 80.605759,62.011856 
	C73.751572,65.305260 78.474670,70.923500 77.400459,75.515404 
	C76.244141,75.000160 75.122986,74.500595 73.850243,73.654175 
	C71.824020,65.710327 70.490059,64.664215 63.663582,65.363106 
	C63.067066,64.201637 62.485924,63.070103 61.904781,61.938568 
	C62.927784,57.587429 63.950783,53.236290 65.082550,48.516731 
z"/>
<path fill="#1794B8" opacity="1.000000" stroke="none" 
	d="
M61.591564,61.993668 
	C62.485924,63.070103 63.067066,64.201637 63.663582,65.363106 
	C70.490059,64.664215 71.824020,65.710327 73.849556,74.061104 
	C73.759155,76.900124 73.517853,78.985352 73.308243,80.796715 
	C74.287766,81.600555 75.144096,82.303291 76.000443,83.006027 
	C74.631271,84.624863 73.262108,86.243690 71.892944,87.862518 
	C72.123718,88.159233 72.354492,88.455940 72.585266,88.752655 
	C73.656929,88.467331 74.728600,88.182007 77.377274,87.476814 
	C75.850998,89.260704 75.205330,90.015358 73.880562,90.883759 
	C72.132927,90.116577 70.779388,89.423676 70.050354,88.318733 
	C68.023994,85.247513 67.544159,80.927589 62.996796,79.568657 
	C61.669586,74.429764 60.342480,69.716934 59.015373,65.004105 
	C59.769695,64.018990 60.524021,63.033878 61.591564,61.993668 
z"/>
<path fill="#0F98B8" opacity="1.000000" stroke="none" 
	d="
M58.754364,65.007065 
	C60.342480,69.716934 61.669586,74.429764 62.998260,79.571243 
	C62.999832,79.999886 62.994869,79.996933 62.596073,79.984917 
	C61.464947,78.831680 60.711956,77.703064 60.006050,76.545731 
	C59.287239,75.367233 58.614765,74.160484 57.938126,72.570648 
	C57.977062,71.118217 57.999874,70.061256 58.240051,68.881332 
	C58.602165,68.466805 58.746910,68.175240 58.745514,67.680588 
	C58.144890,67.295410 57.690407,67.113319 57.235928,66.931236 
	C57.257027,66.563118 57.278126,66.195000 57.298737,65.549828 
	C57.298248,65.272774 57.646210,65.164291 57.808807,65.082275 
	C58.145382,65.003510 58.319366,65.006760 58.754364,65.007065 
z"/>
<path fill="#287DB9" opacity="1.000000" stroke="none" 
	d="
M123.990257,123.004562 
	C123.991730,120.916473 123.993202,118.828392 123.998596,116.122421 
	C124.002052,115.337410 124.001579,115.170280 124.399811,115.002457 
	C125.861084,115.003746 126.923645,115.005714 127.991821,115.410172 
	C127.978683,118.209457 127.727203,120.743790 131.132263,121.117203 
	C131.268692,121.691910 131.405106,122.266624 131.782791,123.027023 
	C131.056885,125.574181 130.089691,127.935646 129.068695,130.642426 
	C127.959984,132.211502 126.905106,133.435257 125.850235,134.658997 
	C125.228149,133.687622 124.606071,132.716217 124.125900,131.051788 
	C124.175293,127.907364 124.082779,125.455963 123.990257,123.004562 
z"/>
<path fill="#2C98C2" opacity="1.000000" stroke="none" 
	d="
M131.107849,121.088638 
	C127.727203,120.743790 127.978683,118.209457 127.831909,115.088989 
	C126.778557,112.243744 125.890724,110.122169 125.006088,107.625793 
	C125.009804,106.501434 125.010323,105.751884 125.010841,105.002342 
	C126.518776,104.863411 128.026703,104.724487 129.766434,104.783669 
	C130.167465,105.849976 130.336700,106.718170 130.687057,108.515480 
	C131.592133,106.928612 132.026382,106.167244 132.713089,105.202667 
	C132.663101,109.731026 132.360672,114.462578 131.754059,119.740715 
	C131.220917,120.521210 131.086792,120.800667 131.047501,121.125671 
	C131.047501,121.125671 131.083450,121.060074 131.107849,121.088638 
z"/>
<path fill="#287DB9" opacity="1.000000" stroke="none" 
	d="
M131.288818,121.036484 
	C131.086792,120.800667 131.220917,120.521210 131.648346,120.160858 
	C131.741241,120.338707 131.635696,120.643005 131.288818,121.036484 
z"/>
<path fill="#46C9D2" opacity="1.000000" stroke="none" 
	d="
M135.347992,91.149185 
	C134.900848,86.885193 134.660477,82.587334 134.728851,78.141922 
	C135.344742,82.012543 135.651886,86.030716 135.952087,90.505905 
	C135.945145,90.962921 135.554779,91.115318 135.347992,91.149185 
z"/>
<path fill="#2C98C2" opacity="1.000000" stroke="none" 
	d="
M133.856140,98.647171 
	C133.702820,98.362144 133.709930,97.790009 133.970505,97.141792 
	C134.154831,97.497154 134.085709,97.928604 133.856140,98.647171 
z"/>
<path fill="#0DB1C6" opacity="1.000000" stroke="none" 
	d="
M98.595184,41.919113 
	C98.956619,42.147915 98.966415,42.314678 98.975761,42.731834 
	C98.303246,44.401421 97.631172,45.820618 96.971893,47.607349 
	C96.984695,47.974880 96.929092,48.428165 96.903740,48.655048 
	C96.878387,48.881931 96.474152,48.964451 96.270454,48.996517 
	C95.604431,49.015408 95.142097,49.002232 94.323761,48.594902 
	C92.612900,47.102341 91.258041,46.003933 89.191193,44.328293 
	C89.167229,43.907932 89.084381,42.454197 89.001526,41.000458 
	C89.667236,39.918530 90.332954,38.836605 90.999939,37.379173 
	C92.421814,36.694981 93.842407,36.386295 95.627075,36.038429 
	C96.741951,37.951851 97.492752,39.904465 98.595184,41.919113 
z"/>
<path fill="#2773AF" opacity="1.000000" stroke="none" 
	d="
M50.048325,93.308540 
	C50.143860,93.010155 50.597706,93.026855 50.813763,93.363571 
	C51.035576,94.138321 51.041328,94.576355 51.047081,95.014397 
	C50.836277,94.995392 50.625469,94.976379 50.100777,94.900978 
	C49.842190,94.432030 49.897491,94.019478 50.048325,93.308540 
z"/>
<path fill="#1988B3" opacity="1.000000" stroke="none" 
	d="
M51.273083,95.187164 
	C51.041328,94.576355 51.035576,94.138321 51.040649,93.372955 
	C52.465099,91.689354 53.878723,90.333076 55.655525,88.977959 
	C55.677593,90.669693 55.523621,92.429726 54.930733,94.026833 
	C54.523697,95.123314 53.506863,95.993423 52.361984,96.965927 
	C51.807278,96.431404 51.653183,95.895660 51.273083,95.187164 
z"/>
<path fill="#4B5053" opacity="1.000000" stroke="none" 
	d="
M88.600204,135.366882 
	C88.281403,135.871063 87.867775,136.098236 87.454147,136.325409 
	C87.397659,135.559052 87.341179,134.792679 87.284691,134.026321 
	C87.691582,134.380844 88.098473,134.735352 88.600204,135.366882 
z"/>
<path fill="#504B4B" opacity="1.000000" stroke="none" 
	d="
M104.890251,104.961014 
	C104.858932,105.305756 104.706299,105.583939 104.215729,105.907913 
	C102.703186,106.925011 101.407280,107.829750 100.111374,108.734489 
	C99.888542,106.636948 99.665703,104.539406 99.378143,101.832626 
	C98.687828,101.383392 97.412979,100.553757 96.068375,99.361145 
	C96.977890,98.224014 97.957161,97.449867 99.372681,96.342926 
	C100.871399,97.526703 102.043030,98.980446 102.963150,100.578949 
	C103.754562,101.953842 104.258957,103.493958 104.890251,104.961014 
z"/>
<path fill="#423F3E" opacity="1.000000" stroke="none" 
	d="
M104.961746,104.972244 
	C104.258957,103.493958 103.754562,101.953842 102.963150,100.578949 
	C102.043030,98.980446 100.871399,97.526703 99.409515,96.003044 
	C99.148163,94.123138 99.286232,92.250313 99.697662,90.179970 
	C100.420670,89.987679 100.870323,89.992912 101.656860,89.997574 
	C102.488258,90.968536 102.982773,91.940071 104.094986,93.193420 
	C104.865929,97.324524 105.019180,101.173820 105.172424,105.023117 
	C105.172424,105.023117 105.033234,104.983475 104.961746,104.972244 
z"/>
<path fill="#0AA6BD" opacity="1.000000" stroke="none" 
	d="
M88.565834,41.000038 
	C89.084381,42.454197 89.167229,43.907932 89.191193,44.328293 
	C91.258041,46.003933 92.612900,47.102341 93.976913,48.593513 
	C93.986076,48.986271 93.504906,49.004776 92.892273,49.007805 
	C90.577339,49.686958 88.875053,50.363087 87.134781,51.054298 
	C88.320267,53.101265 89.166969,54.563274 90.013680,56.025284 
	C85.125099,55.413116 82.452484,57.348530 82.073601,62.645691 
	C81.294769,62.593792 81.103149,62.329712 80.998215,62.002747 
	C81.567703,58.682205 82.696671,55.333542 82.531616,52.049923 
	C82.396912,49.370251 80.716003,46.768307 79.352066,43.696152 
	C78.339470,42.597454 77.695465,41.934502 77.051468,41.271549 
	C76.777710,41.771679 76.503960,42.271812 76.230209,42.771946 
	C77.153374,43.181858 78.076530,43.591770 78.999695,44.001678 
	C78.083878,45.651421 77.519821,48.242802 76.175354,48.745041 
	C73.751289,49.650570 70.788872,49.443592 70.040604,45.383022 
	C71.722809,42.340649 73.370781,39.622353 75.222946,37.051147 
	C75.827896,36.211349 76.964516,35.754536 78.255936,34.841091 
	C79.713058,40.346073 83.280327,41.829056 88.565834,41.000038 
z"/>
<path fill="#179FBF" opacity="1.000000" stroke="none" 
	d="
M80.605759,62.011856 
	C81.103149,62.329712 81.294769,62.593792 81.794922,62.907112 
	C81.656494,66.659164 80.750313,70.150337 83.661171,73.589821 
	C84.668640,74.780251 83.353691,77.936150 83.052933,80.591347 
	C81.567947,82.653908 80.129578,84.319412 78.381317,86.343750 
	C77.651138,85.195053 77.092491,84.316223 76.267143,83.221710 
	C75.144096,82.303291 74.287766,81.600555 73.308243,80.796715 
	C73.517853,78.985352 73.759155,76.900124 74.001144,74.407959 
	C75.122986,74.500595 76.244141,75.000160 77.400459,75.515404 
	C78.474670,70.923500 73.751572,65.305260 80.605759,62.011856 
M78.517288,83.413498 
	C78.517288,83.413498 78.582108,83.522522 78.517288,83.413498 
z"/>
<path fill="#0DB1C6" opacity="1.000000" stroke="none" 
	d="
M90.370453,55.954048 
	C89.166969,54.563274 88.320267,53.101265 87.134781,51.054298 
	C88.875053,50.363087 90.577339,49.686958 92.651520,49.010605 
	C92.258018,51.301186 91.492630,53.591999 90.370453,55.954048 
z"/>
<path fill="#1988B3" opacity="1.000000" stroke="none" 
	d="
M62.998367,79.997299 
	C67.544159,80.927589 68.023994,85.247513 70.050354,88.318733 
	C70.779388,89.423676 72.132927,90.116577 73.606842,91.000290 
	C74.186424,93.530769 74.360619,96.058495 74.272385,98.796738 
	C72.552277,97.460518 71.180557,95.818329 69.606636,94.400627 
	C68.560791,93.458603 66.520866,91.913574 66.127975,92.213448 
	C61.455666,95.779465 60.031120,91.156525 57.257874,89.020226 
	C52.942635,87.083992 53.570835,83.964523 55.135185,80.510193 
	C57.532967,82.317703 59.466770,84.332283 61.400574,86.346855 
	C61.932003,86.116058 62.463436,85.885262 62.994869,85.654465 
	C62.994869,83.768623 62.994869,81.882774 62.994869,79.996933 
	C62.994869,79.996933 62.999832,79.999886 62.998367,79.997299 
M68.483040,89.589256 
	C68.483040,89.589256 68.416176,89.477409 68.483040,89.589256 
z"/>
<path fill="#307A92" opacity="1.000000" stroke="none" 
	d="
M105.474327,105.011551 
	C105.019180,101.173820 104.865929,97.324524 104.456848,93.229523 
	C105.114342,91.233604 106.027679,89.483398 106.994530,87.398331 
	C107.048050,87.063469 107.543190,86.994652 107.792419,86.968704 
	C108.037292,90.022636 108.032944,93.102524 108.021652,97.024696 
	C107.672691,100.250046 107.330666,102.633102 106.988640,105.016167 
	C106.584503,105.010773 106.180359,105.005379 105.474327,105.011551 
z"/>
<path fill="#2365AC" opacity="1.000000" stroke="none" 
	d="
M123.596786,122.996078 
	C124.082779,125.455963 124.175293,127.907364 124.116684,130.686707 
	C122.538979,131.639694 121.112411,132.264740 119.299744,132.572250 
	C117.570572,129.055252 115.364105,128.286850 112.646210,129.534500 
	C112.010948,131.646637 111.506760,133.322968 111.002571,134.999298 
	C110.835167,134.999329 110.667763,134.999359 110.249214,134.999084 
	C109.259018,130.860626 108.519958,126.722481 107.891212,122.291557 
	C113.098236,121.875732 118.343575,119.467712 123.596786,122.996078 
z"/>
<path fill="#2861AE" opacity="1.000000" stroke="none" 
	d="
M111.001343,135.368011 
	C111.506760,133.322968 112.010948,131.646637 112.646210,129.534500 
	C115.364105,128.286850 117.570572,129.055252 118.955284,132.623077 
	C116.330711,134.859680 113.664482,136.727905 111.000114,138.594833 
	C111.000114,137.951736 111.000114,136.844223 111.001343,135.368011 
z"/>
<path fill="#1988B3" opacity="1.000000" stroke="none" 
	d="
M124.743027,104.788391 
	C125.010323,105.751884 125.009804,106.501434 124.627808,107.615875 
	C122.979027,106.532394 121.711731,105.084000 120.193054,103.348312 
	C117.349106,104.927917 114.458275,105.174713 113.001404,100.999390 
	C114.779488,97.033432 116.557571,93.067474 118.666924,89.048691 
	C121.086746,91.992706 123.175308,94.989548 125.631172,97.993347 
	C125.490715,100.191681 124.982964,102.383064 124.743027,104.788391 
z"/>
<path fill="#1794B8" opacity="1.000000" stroke="none" 
	d="
M62.596073,79.984917 
	C62.994869,81.882774 62.994869,83.768623 62.994869,85.654465 
	C62.463436,85.885262 61.932003,86.116058 61.400574,86.346855 
	C59.466770,84.332283 57.532967,82.317703 55.291481,80.147141 
	C54.986031,79.528847 54.988274,79.066536 55.265354,78.059044 
	C56.334133,75.997940 57.128067,74.482025 57.922005,72.966110 
	C58.614765,74.160484 59.287239,75.367233 60.006050,76.545731 
	C60.711956,77.703064 61.464947,78.831680 62.596073,79.984917 
z"/>
<path fill="#3DA8B7" opacity="1.000000" stroke="none" 
	d="
M57.938126,72.570648 
	C57.128067,74.482025 56.334133,75.997940 55.273872,77.712296 
	C54.861187,77.395241 54.714825,76.879745 54.347343,76.201775 
	C55.036873,73.218605 55.947517,70.397911 57.047047,67.254227 
	C57.690407,67.113319 58.144890,67.295410 58.544273,67.819107 
	C58.238522,68.389275 58.083023,68.670471 58.022690,69.004288 
	C57.999874,70.061256 57.977062,71.118217 57.938126,72.570648 
z"/>
<path fill="#1B76AB" opacity="1.000000" stroke="none" 
	d="
M124.001106,115.003143 
	C124.001579,115.170280 124.002052,115.337410 124.001419,115.755325 
	C123.114349,116.585678 122.228386,117.165253 121.342430,117.744827 
	C121.508743,117.349770 121.675064,116.954712 121.841377,116.559654 
	C119.955734,115.970718 118.093399,115.287231 116.178902,114.815315 
	C113.403824,114.131256 110.591057,113.600113 107.394272,113.002029 
	C107.000473,111.614273 107.006775,110.228249 107.362228,108.363960 
	C108.807076,106.257133 109.902771,104.628571 111.288818,103.223221 
	C112.063843,104.989136 112.393326,106.606201 113.085083,108.049667 
	C113.587479,109.097984 115.031052,110.824821 115.269028,110.703789 
	C120.208038,108.191833 121.681839,112.431709 124.001106,115.003143 
z"/>
<path fill="#16729E" opacity="1.000000" stroke="none" 
	d="
M110.998474,103.000000 
	C109.902771,104.628571 108.807076,106.257133 107.370987,107.948257 
	C107.019073,107.261848 107.007553,106.512901 106.992340,105.390060 
	C107.330666,102.633102 107.672691,100.250046 108.029160,97.438286 
	C108.481537,97.008278 108.919472,97.006973 109.790878,97.228394 
	C110.418098,97.725349 110.676018,97.909996 110.998093,98.005051 
	C111.312286,98.787689 111.626472,99.570335 111.721123,100.840332 
	C111.333885,101.885124 111.166183,102.442566 110.998474,103.000000 
z"/>
<path fill="#1B7FB1" opacity="1.000000" stroke="none" 
	d="
M111.288818,103.223221 
	C111.166183,102.442566 111.333885,101.885124 111.745384,101.157471 
	C112.157867,100.990395 112.326553,100.993515 112.748322,100.998009 
	C114.458275,105.174713 117.349106,104.927917 120.193054,103.348312 
	C121.711731,105.084000 122.979027,106.532394 124.624603,107.990692 
	C125.890724,110.122169 126.778557,112.243744 127.826294,114.686493 
	C126.923645,115.005714 125.861084,115.003746 124.399811,115.002457 
	C121.681839,112.431709 120.208038,108.191833 115.269028,110.703789 
	C115.031052,110.824821 113.587479,109.097984 113.085083,108.049667 
	C112.393326,106.606201 112.063843,104.989136 111.288818,103.223221 
z"/>
<path fill="#1B7FB1" opacity="1.000000" stroke="none" 
	d="
M110.893143,97.787468 
	C110.676018,97.909996 110.418098,97.725349 110.119720,97.233894 
	C110.336502,97.112053 110.594200,97.296455 110.893143,97.787468 
z"/>
<path fill="#1794B8" opacity="1.000000" stroke="none" 
	d="
M58.240051,68.881332 
	C58.083023,68.670471 58.238522,68.389275 58.690418,68.022194 
	C58.746910,68.175240 58.602165,68.466805 58.240051,68.881332 
z"/>
<path fill="#0DADBF" opacity="1.000000" stroke="none" 
	d="
M78.999847,44.000839 
	C78.076530,43.591770 77.153374,43.181858 76.230209,42.771946 
	C76.503960,42.271812 76.777710,41.771679 77.051468,41.271549 
	C77.695465,41.934502 78.339470,42.597454 78.992500,43.630005 
	C79.001534,43.999599 79.000000,44.000000 78.999847,44.000839 
z"/>
<path fill="#299FC2" opacity="1.000000" stroke="none" 
	d="
M78.549698,83.468010 
	C78.582108,83.522522 78.517288,83.413498 78.549698,83.468010 
z"/>
<path fill="#1794B8" opacity="1.000000" stroke="none" 
	d="
M68.449608,89.533333 
	C68.416176,89.477409 68.483040,89.589256 68.449608,89.533333 
z"/>
</svg>