<svg width="93" height="78" viewBox="0 0 93 78" fill="none" xmlns="http://www.w3.org/2000/svg">
<mask id="mask0_455_444" style="mask-type:luminance" maskUnits="userSpaceOnUse" x="0" y="0" width="93" height="78">
<path d="M93 0H0V77.4463H93V0Z" fill="white"/>
</mask>
<g mask="url(#mask0_455_444)">
<path d="M71.3635 0.0371096H40.0195V77.3995H53.3327V33.0144C55.3985 36.0772 58.2378 38.5618 61.5737 40.2251C64.9093 41.8884 68.6269 42.6735 72.364 42.5042C76.1008 42.3348 79.7292 41.2163 82.8948 39.2582C86.0601 37.3004 88.6543 34.5696 90.4237 31.3327C92.194 28.0959 93.0791 24.4635 92.9918 20.7904C92.9054 17.1174 91.8506 13.5292 89.9302 10.3762C88.0098 7.22319 85.29 4.61317 82.0358 2.80104C78.7814 0.9889 75.1044 0.0366027 71.3635 0.0371096ZM71.3635 32.0843V32.1807H53.3327V13.0946H69.3351C69.5496 13.0946 69.7551 13.0946 69.9785 13.0946C70.202 13.0946 70.4073 13.0946 70.6218 13.0946H71.3635V13.2C73.6727 13.5324 75.7831 14.6696 77.3093 16.404C78.8352 18.1384 79.6749 20.3543 79.6749 22.6465C79.6749 24.9387 78.8352 27.1545 77.3093 28.8888C75.7831 30.6233 73.6727 31.7606 71.3635 32.093V32.0843Z" fill="#00C680"/>
<path d="M92.9951 54.775C92.9959 60.6378 90.6766 66.2716 86.5275 70.4863C82.3776 74.7009 76.7223 77.1664 70.756 77.3624H69.9876H23.0254C22.4715 77.3624 21.9265 77.3623 21.3815 77.301C9.42637 76.5024 2.37648e-06 67.0339 2.37648e-06 55.4769C2.37648e-06 55.2225 2.37648e-06 54.9681 2.37648e-06 54.7047H13.9653C13.9653 54.9241 13.9653 55.1522 13.9653 55.3717C13.9653 60.2945 18.3078 64.2874 23.6598 64.2874H55.0037V64.1732H68.3168C68.6729 64.2087 69.031 64.2263 69.389 64.2259C71.8938 64.2422 74.3078 63.3056 76.1252 61.6127C77.9423 59.9197 79.0219 57.6014 79.1374 55.1441C79.2529 52.6865 78.3955 50.2806 76.7447 48.4305C75.094 46.5801 72.7781 45.429 70.2825 45.2188C69.9966 45.2188 69.7107 45.2188 69.389 45.2188C69.0674 45.2188 68.8171 45.2188 68.4955 45.2188H23.231C22.6054 45.2188 21.9889 45.2188 21.3815 45.1485C16.2328 44.7597 11.363 42.6971 7.54112 39.2866C5.16577 37.1809 3.26713 34.6086 1.96808 31.7367C0.669034 28.8645 -0.00145677 25.7565 2.37648e-06 22.6138C0.024088 16.9039 2.23814 11.4126 6.20085 7.23452C10.1636 3.05643 15.5839 0.498357 21.3815 0.0702168C21.9889 0.0175655 22.6054 0 23.231 0H36.4279V12.9522H22.9362V12.9961L22.3016 13.0751C19.976 13.4467 17.8676 14.6374 16.3709 16.4249C14.8741 18.2122 14.0915 20.4738 14.1692 22.7868C14.2469 25.0997 15.1797 27.3056 16.7932 28.9921C18.4067 30.6789 20.5904 31.7303 22.9362 31.9505V31.9945H44.38C44.3616 32.0466 44.3376 32.0965 44.3085 32.1436H69.9876H70.756C76.7292 32.3419 82.3898 34.8144 86.5406 39.0379C90.6905 43.2615 93.0057 48.9052 92.9951 54.775Z" fill="#005C3C"/>
</g>
</svg>
