<svg width="97" height="84" viewBox="0 0 97 84" fill="none" xmlns="http://www.w3.org/2000/svg">
<path d="M39.1418 3.23047H12.41L3.2334 19.5757H29.5662L39.1418 3.23047Z" fill="#5555FF" stroke="#5555FF" stroke-width="0.236842"/>
<path d="M84.6254 3.23047H47.5203L38.3438 19.5757H75.0498L84.6254 3.23047Z" fill="#5555FF" stroke="#5555FF" stroke-width="0.236842"/>
<path d="M39.9395 83.3629L48.7173 68.2139L57.4948 83.3629H39.9395Z" fill="#5555FF" stroke="#5555FF" stroke-width="0.236842"/>
<path d="M58.2931 20.7715L48.522 36.7179L38.3438 20.7715H58.2931Z" fill="#5555FF" stroke="#5555FF" stroke-width="0.236842"/>
<path d="M21.1875 20.7715H3.2334L12.011 36.3196L21.1875 20.7715Z" fill="#5555FF" stroke="#5555FF" stroke-width="0.236842"/>
<path d="M47.52 66.6179L21.9851 22.3662L12.8086 37.5154L38.7424 82.166L47.52 66.6179Z" fill="#5555FF" stroke="#5555FF" stroke-width="0.236842"/>
<path d="M58.2932 81.7677L49.5156 66.6183L75.4492 21.5693L84.2267 37.1172L58.2932 81.7677Z" fill="#5555FF" stroke="#5555FF" stroke-width="0.236842"/>
<path d="M85.0246 4.8252C82.0988 9.74207 76.2471 19.7353 76.2471 20.3731L85.0246 35.9212L94.2011 19.9745L85.0246 4.8252Z" fill="#5555FF" stroke="#5555FF" stroke-width="0.236842"/>
</svg>
