<svg width="30" height="26" viewBox="0 0 30 26" fill="none" xmlns="http://www.w3.org/2000/svg">
  <path d="M12.1057 1H3.83811L1 6.05924H9.14415L12.1057 1Z" fill="#000066" stroke="#000066" stroke-width="0.236842" />
  <path d="M26.1728 1H14.697L11.8589 6.05924H23.2113L26.1728 1Z" fill="#000066" stroke="#000066" stroke-width="0.236842" />
  <path
    d="M12.3524 25.8028L15.0672 21.1138L17.7819 25.8028H12.3524Z"
    fill="#000066"
    stroke="#000066"
    stroke-width="0.236842"
  />
  <path
    d="M18.0287 6.42939L15.0067 11.3652L11.8588 6.42939L18.0287 6.42939Z"
    fill="#000066"
    stroke="#000066"
    stroke-width="0.236842"
  />
  <path d="M6.55283 6.4292H1L3.71472 11.2417L6.55283 6.4292Z" fill="#000066" stroke="#000066" stroke-width="0.236842" />
  <path
    d="M14.697 20.6198L6.79963 6.92285L3.96152 11.6119L11.9823 25.4323L14.697 20.6198Z"
    fill="#000066"
    stroke="#000066"
    stroke-width="0.236842"
  />
  <path
    d="M18.0287 25.3091L15.314 20.62L23.3347 6.67627L26.0494 11.4887L18.0287 25.3091Z"
    fill="#000066"
    stroke="#000066"
    stroke-width="0.236842"
  />
  <path
    d="M26.2962 1.49365C25.3913 3.01554 23.5815 6.10867 23.5815 6.3061L26.2962 11.1186L29.1343 6.18271L26.2962 1.49365Z"
    fill="#000066"
    stroke="#000066"
    stroke-width="0.236842"
  />
</svg>
